<mxfile host="Electron" modified="2024-04-05T05:43:47.078Z" agent="Mozilla/5.0 (Windows NT 10.0; Win64; x64) AppleWebKit/537.36 (KHTML, like Gecko) draw.io/24.0.4 Chrome/120.0.6099.109 Electron/28.1.0 Safari/537.36" etag="G__F-6uO5tKX6baUhkMj" version="24.0.4" type="device">
  <diagram name="Page-1" id="JPMR-7a9bdTdtV-mK-Hc">
    <mxGraphModel dx="1434" dy="836" grid="0" gridSize="10" guides="1" tooltips="1" connect="1" arrows="1" fold="1" page="0" pageScale="1" pageWidth="850" pageHeight="1100" background="#ffffff" math="0" shadow="0">
      <root>
        <mxCell id="0" />
        <mxCell id="1" parent="0" />
        <UserObject label="" tags="Background" id="IFgAx-EEVJAiXfjY6ULy-1">
          <mxCell style="vsdxID=10061;fillColor=#0078d4;gradientColor=none;fillOpacity=10;strokeOpacity=10;shape=stencil(nZBLDoAgDERP0z3SIyjew0SURgSD+Lu9kMZoXLhwN9O+tukAlrNpJg1SzDH4QW/URgNYgZTkjA4UkwJUgGXng+6DX1zLfmoymdXo17xh5zmRJ6Q42BWCfc2oJfdAr+Yv+AP9Cb7OJ3H/2JG1HNGz/84klThPVCc=);strokeColor=none;spacingTop=-3;spacingBottom=-3;spacingLeft=-3;spacingRight=-3;points=[];labelBackgroundColor=none;rounded=0;html=1;whiteSpace=wrap;" parent="1" vertex="1">
            <mxGeometry x="54" y="207" width="643" height="381" as="geometry" />
          </mxCell>
        </UserObject>
        <UserObject label="&lt;div style=&quot;font-size: 1px&quot;&gt;&lt;font style=&quot;font-size:16.93px;font-family:Segoe UI Semibold;color:#000000;direction:ltr;letter-spacing:0px;line-height:120%;opacity:1&quot;&gt;Azure &lt;/font&gt;&lt;font style=&quot;font-size:16.93px;font-family:Segoe UI Semibold;color:#000000;direction:ltr;letter-spacing:0px;line-height:120%;opacity:1&quot;&gt;Active Directory Services&lt;/font&gt;&lt;font style=&quot;font-size:16.93px;font-family:Segoe UI Semibold;color:#000000;direction:ltr;letter-spacing:0px;line-height:120%;opacity:1&quot;&gt;(ADDS)&lt;br/&gt;&lt;/font&gt;&lt;/div&gt;" tags="Background" id="IFgAx-EEVJAiXfjY6ULy-2">
          <mxCell style="verticalAlign=top;align=center;overflow=width;vsdxID=10062;fillColor=#f2f2f2;gradientColor=none;shape=stencil(nZBLDoAgDERP0z3SIyjew0SURgSD+Lu9kMZoXLhwN9O+tukAlrNpJg1SzDH4QW/URgNYgZTkjA4UkwJUgGXng+6DX1zLfmoymdXo17xh5zmRJ6Q42BWCfc2oJfdAr+Yv+AP9Cb7OJ3H/2JG1HNGz/84klThPVCc=);strokeColor=#0070c0;spacingTop=-3;spacingBottom=-3;spacingLeft=-3;spacingRight=-3;points=[[0,0.5,0]];labelBackgroundColor=none;rounded=0;html=1;whiteSpace=wrap;" parent="1" vertex="1">
            <mxGeometry x="75" y="295" width="340" height="134" as="geometry" />
          </mxCell>
        </UserObject>
        <UserObject label="&lt;div style=&quot;font-size: 1px&quot;&gt;&lt;p style=&quot;text-align:left;margin-left:0;margin-right:0;margin-top:0px;margin-bottom:0px;text-indent:0;vertical-align:middle;direction:ltr;&quot;&gt;&lt;font style=&quot;font-size:33.87px;font-family:Segoe UI Semibold;color:#000000;direction:ltr;letter-spacing:0px;line-height:120%;opacity:1&quot;&gt;&lt;b&gt;Platform &lt;/b&gt;&lt;/font&gt;&lt;font style=&quot;font-size:33.87px;font-family:Segoe UI Semibold;color:#000000;direction:ltr;letter-spacing:0px;line-height:120%;opacity:1&quot;&gt;&lt;b&gt;Identity&lt;/b&gt;&lt;/font&gt;&lt;font style=&quot;font-size:33.87px;font-family:Segoe UI Semibold;color:#000000;direction:ltr;letter-spacing:0px;line-height:120%;opacity:1&quot;&gt;&lt;b&gt; S&lt;/b&gt;&lt;/font&gt;&lt;font style=&quot;font-size:33.87px;font-family:Segoe UI Semibold;color:#000000;direction:ltr;letter-spacing:0px;line-height:120%;opacity:1&quot;&gt;&lt;b&gt;ubscription&lt;br/&gt;&lt;/b&gt;&lt;/font&gt;&lt;/p&gt;&lt;/div&gt;" tags="Background" id="IFgAx-EEVJAiXfjY6ULy-3">
          <mxCell style="verticalAlign=middle;align=left;overflow=width;vsdxID=10075;fillColor=none;gradientColor=none;shape=stencil(nZBLDoAgDERP0z3SIyjew0SURgSD+Lu9kMZoXLhwN9O+tukAlrNpJg1SzDH4QW/URgNYgZTkjA4UkwJUgGXng+6DX1zLfmoymdXo17xh5zmRJ6Q42BWCfc2oJfdAr+Yv+AP9Cb7OJ3H/2JG1HNGz/84klThPVCc=);strokeColor=none;points=[];labelBackgroundColor=none;rounded=0;html=1;whiteSpace=wrap;" parent="1" vertex="1">
            <mxGeometry x="104" y="162" width="580" height="46" as="geometry" />
          </mxCell>
        </UserObject>
        <UserObject label="" tags="Background" id="IFgAx-EEVJAiXfjY6ULy-4">
          <mxCell style="vsdxID=10076;fillColor=none;gradientColor=none;points=[];labelBackgroundColor=none;rounded=0;strokeColor=none;html=1;whiteSpace=wrap;" parent="1" vertex="1">
            <mxGeometry x="3" y="164" width="102" height="98" as="geometry" />
          </mxCell>
        </UserObject>
        <mxCell id="IFgAx-EEVJAiXfjY6ULy-5" style="vsdxID=10077;fillColor=none;gradientColor=none;strokeColor=none;spacingTop=-3;spacingBottom=-3;spacingLeft=-3;spacingRight=-3;points=[];labelBackgroundColor=none;rounded=0;html=1;whiteSpace=wrap;" parent="IFgAx-EEVJAiXfjY6ULy-4" vertex="1">
          <mxGeometry width="102" height="98" as="geometry" />
        </mxCell>
        <mxCell id="IFgAx-EEVJAiXfjY6ULy-6" style="vsdxID=10078;fillColor=#FFFFFF;gradientColor=none;shape=stencil(vZTdcsIgEIWfJpfZAZbfa6vvwShqpmnikFj17UsKxGBbZ3rjHZw9YeHL7la4Go725CpGhtH37+7S7MZjhW8VY013dL4Zw6rCdYWrfe/dwffnbhf3Jzs5p9VH/zmdcI3foQBGp68YuUWFEvK930S79dsQ89nOQZho97dZ4lFJHoqAojjSMFDZU9trM9S+H+3Y9F2Mx4Sktf7g6pCw3rf2UISGi3OnhUyXV9yefXwSjUEOkqX8SdECdHrllRUH39JWcdAqOTA5ADOZpEgKyvwNR/L54RmORDCmpCOAYEGHBY98HR2mgD7iAfNAh/MSDynRSAJUlGyeF43UP4tGF1w0K6AoYC+smFzzMxFGQfASiTHzlTIVweYfnsnoUDUlGCXA4LPkUt9bMEmGgNFlekEBsUw/3zonXzYz/trNbdP9p/nD4j449k3bxrmzjD8OmiDFIYXrLw==);strokeColor=#ffd965;spacingTop=-3;spacingBottom=-3;spacingLeft=-3;spacingRight=-3;points=[];labelBackgroundColor=none;rounded=0;html=1;whiteSpace=wrap;" parent="IFgAx-EEVJAiXfjY6ULy-5" vertex="1">
          <mxGeometry x="4" width="97" height="97" as="geometry" />
        </mxCell>
        <mxCell id="IFgAx-EEVJAiXfjY6ULy-7" style="vsdxID=10079;fillColor=#ffe452;gradientColor=none;fillOpacity=23;strokeOpacity=23;shape=stencil(vZTdcsIgEIWfJpfZAZbfa6vvwShqpmnikFj17UsKxGBbZ3rjHZw9YeHL7la4Go725CpGhtH37+7S7MZjhW8VY013dL4Zw6rCdYWrfe/dwffnbhf3Jzs5p9VH/zmdcI3foQBGp68YuUWFEvK930S79dsQ89nOQZho97dZ4lFJHoqAojjSMFDZU9trM9S+H+3Y9F2Mx4Sktf7g6pCw3rf2UISGi3OnhUyXV9yefXwSjUEOkqX8SdECdHrllRUH39JWcdAqOTA5ADOZpEgKyvwNR/L54RmORDCmpCOAYEGHBY98HR2mgD7iAfNAh/MSDynRSAJUlGyeF43UP4tGF1w0K6AoYC+smFzzMxFGQfASiTHzlTIVweYfnsnoUDUlGCXA4LPkUt9bMEmGgNFlekEBsUw/3zonXzYz/trNbdP9p/nD4j449k3bxrmzjD8OmiDFIYXrLw==);strokeColor=#ffd965;spacingTop=-3;spacingBottom=-3;spacingLeft=-3;spacingRight=-3;points=[];labelBackgroundColor=none;rounded=0;html=1;whiteSpace=wrap;" parent="IFgAx-EEVJAiXfjY6ULy-5" vertex="1">
          <mxGeometry x="4" width="97" height="97" as="geometry" />
        </mxCell>
        <mxCell id="IFgAx-EEVJAiXfjY6ULy-8" style="vsdxID=10080;fillColor=#ffe452;gradientColor=none;shape=stencil(vVbbbtswDP0aP4aQSF2fu+4/jNZJjHlxoLhr8veVK/lCtXExYOubTVI6R4cXqaKHy7E+NxWKyxD6X81r+zwcK/pRIbanYxPaIX5V9FjRw74PzSH0L6fn9H+ux8jx63f/Z9zhmtYZCc6Nq1DckkWAwnfDzxTftae/iq/DU3SGHE8Ixqf4kBeQAqGTKQc5BGXZphZ0XnXd1df2sgv9UA9tf8qYydfV4dDsIuBu39UH5rq8Ns15ZZZrik8vIWkgk9N7UBnulk0owZrMAHOUA5t537JJIxDlKMpnEeCmqGyyetLgDr7xQI7jewGmwNcE5Dl+JK4dxycHEjn+EnUvRVoXKSLwyFIkLajpWHnXmDT5jTkCJC6R06ALiRQ4yxWyCixyhTRIwwWKRe03aji6ZVHDhpbyyOQ9SC5QZEPfKBDFikGuUCwrWwhk5oKZFJr7dxZo3eP0eZN/OUS2mCoLUnKmgtOMZyny6JZcZ0rSgSPOMiouzBZy3FZx4MjFKA4uigpyc3PO0BbQcujYDXnrz3uMPszAedOlb7mGUkyq/Jvq2cxJnGS+yMmCj8uYIi6Ol6AUF8ct3bIagF5toccJhcUAHEdr0d0zoQk9Dump5Gd0nBtzRgdk0/fD9Jtmxio5yC+oewX+X1Lz5YW7Do4fy9W+b7suvQzW/vIpEE3pGUGPbw==);strokeColor=#ffd965;spacingTop=-3;spacingBottom=-3;spacingLeft=-3;spacingRight=-3;points=[];labelBackgroundColor=none;rounded=0;html=1;whiteSpace=wrap;" parent="IFgAx-EEVJAiXfjY6ULy-5" vertex="1">
          <mxGeometry width="102" height="98" as="geometry" />
        </mxCell>
        <mxCell id="IFgAx-EEVJAiXfjY6ULy-9" style="vsdxID=10081;fillColor=#d15900;gradientColor=none;shape=stencil(vVbbTuMwEP2aPHZke3x9ZuE/IkjbaENTuWGBv19nfUnGLUFILG/O+Nhn5swlbvDucmzPXSPYZfLj7+61f5qODf5qhOhPx873U1g1eN/g3X703cGPL6en+H1uZ+S8eh7/zDe8xXOag8H5lGDv0cIA3T/DQ8S3/jFs+oRHAcZEvE8HUAJLVySQFaA0udSAlgmya9/6y86PUzv14ylxxr2h9YduFwh3+6E9kK3La9edV2a+dvHxxceYeNx0DkzmTybBwbrkgSgolpx6TyYlQKqEwhQLT5D0bRS4TXLtgFfkjgMKSh6YjKPkwR+LlBwtMEv5F9RH+XFX6eGGpIcbEIKkxwnQ/Ofyw6g8xgJKKg8DU6VGmlJ4WR1uFw2TSUjATWpkoJHSW6gKQxpKXTqiMK+7Bm+3zedtxomjQ3/6Er4OTGoQlgZWjpTIQvRcVVUH/EpVZa9UTcdu1lxwNndNLjqNYHPFJ/9ASRJQOGW/teTYpjxLyeeqk2AslceCtlQdqxZQ1scA01Sf0D5GbPQkArdXTSk10Wfd6omIsZ/TRyGoqi8WflEmm666Mkw2VtWP5SBuzEy3xR6GGnLKPo9ipPzFocwehnr5rWT2kApVscPWvMTCvMoNTc2NZvx/ifnqHAiL5d++74chPg3W+/VbIJjiOwLv/wI=);strokeColor=#ffd965;spacingTop=-3;spacingBottom=-3;spacingLeft=-3;spacingRight=-3;points=[];labelBackgroundColor=none;rounded=0;html=1;whiteSpace=wrap;" parent="IFgAx-EEVJAiXfjY6ULy-5" vertex="1">
          <mxGeometry width="102" height="98" as="geometry" />
        </mxCell>
        <mxCell id="IFgAx-EEVJAiXfjY6ULy-10" style="vsdxID=10082;fillColor=none;gradientColor=none;strokeColor=none;spacingTop=-3;spacingBottom=-3;spacingLeft=-3;spacingRight=-3;points=[];labelBackgroundColor=none;rounded=0;html=1;whiteSpace=wrap;" parent="IFgAx-EEVJAiXfjY6ULy-4" vertex="1">
          <mxGeometry x="33" y="20" width="36" height="57" as="geometry" />
        </mxCell>
        <mxCell id="IFgAx-EEVJAiXfjY6ULy-11" style="vsdxID=10083;fillColor=#ffd70f;gradientColor=none;shape=stencil(vVfbcpswEP0aHr2j++U5Tf+DSbDNlBqPTBrn7ysiLlkkFLfD8AbSao/27NmVVPCn27m8VgUjt861v6r3+rU7F/xHwVh9OVeu7vxXwZ8L/nRsXXVy7dvlNfxfy96y//rd/uk93MM6K0D1ixj5CAPcgvwc+BnMS/fiJ91gTg0IHuzdsIBSkDQMrflkHPrfT5NDea9vB9d2ZVe3lzBPwlxTulN18ICHY1Oe0NTtvaqu0fCwxaa+5CKa0ZP2ioHlmALgIksB1xEFwiAKuAZC0053oCCDnrSX097WKIsokDaiQGEVRE4nZe3BAAPCELpUQPV6SBIMxRFxUBznlIPEQpFzNWwUEs2EFMEbA9ash6RGuseIBBCFI5LANHJpKWi1aUSZJAkNzGJ4O24oGZGYZD2GxCZJDRnxxSxXXO4QUQ4+3XzEVElzBqzccIH2vQnn2GjIcMyAqUVpg8CVnXApQe1Gcg4+zZmvBHwkGDacESsUyIgCXDgJj2Tr/p5pBTn4BynTOtvh2RTNFxVgDhI+JdDdzrgc/IOkeRfa5jgQy0MOJG43sU/lD7ltK+GfdDDDr5FmcH/yLnhWB2x51wHBioUOlj7F1Nd30cEqfJo0CQQvkBZsTjjxAn8FzCB8e6fGV3BJgBhczUAz7YmS6cI9JmXWwX2BOLqk4r87NH1Al9EOmVnucCEbYUGvRL1D5WTQ0wf7tznyH/Mb61g3TXiifZ1fvsn8UHjP8ee/);strokeColor=none;strokeWidth=3;spacingTop=-3;spacingBottom=-3;spacingLeft=-3;spacingRight=-3;points=[];labelBackgroundColor=none;rounded=0;html=1;whiteSpace=wrap;" parent="IFgAx-EEVJAiXfjY6ULy-10" vertex="1">
          <mxGeometry width="36" height="57" as="geometry" />
        </mxCell>
        <mxCell id="IFgAx-EEVJAiXfjY6ULy-12" style="vsdxID=10084;fillColor=#ff9300;gradientColor=none;fillOpacity=75;strokeOpacity=75;shape=stencil(vVTBboMwDP2aHLGCQxJy7rr/iNYA0RipAlu7v19YULsAotqh3ILtZz8/GxN26Bt9NgRpP3j3bi72NDSEvRBE2zXG2yG8CDsSdqicN7V3n90pfp/1GDm+PtzXmOEaccgB2YhC+h0tSgErfi2vEdDa7n8A7d+C108AzqCYAH5CcMh5tEwxqoS8TJNKkGqKyfTV9pl3gx6s66KfRl+rfW2yUDCrWl0nrv5izHlhXqVYKJAipVhA+YhhEAKfxzBVfVk+VJcbopcgcS66EElLkgPlSU4KZb5XRxvV1zvKYTEilc4IgaokI95Ee/4OCYSCpwQFUNwmeBviDoIvit8XeF1wAUrOVyj9bbduwR4dPT5F4XG/fJVt23g4//rnlzKY4pVlxx8=);strokeColor=none;strokeWidth=3;spacingTop=-3;spacingBottom=-3;spacingLeft=-3;spacingRight=-3;points=[];labelBackgroundColor=none;rounded=0;html=1;whiteSpace=wrap;" parent="IFgAx-EEVJAiXfjY6ULy-10" vertex="1">
          <mxGeometry x="14" y="35" width="1" height="15" as="geometry" />
        </mxCell>
        <mxCell id="IFgAx-EEVJAiXfjY6ULy-13" style="vsdxID=10085;fillColor=#ff9300;gradientColor=none;fillOpacity=75;strokeOpacity=75;shape=stencil(vVPLDoMgEPwajhoUbeLZ2v8gFZWUgllptX9fLKQ+aNPEJt6W3VlmZ2EQybuGtgzFuNOgLqznpW4QOaI45rJhwLWJECkQySsFrAZ1k6U9t3REjtFV3ccbBtuHx44YP+wpJSHOXpmTBVM4myo4cBqmkcWDa0gOYeZSHsZBIuw4hoAOvAtAaaq5kgt+QaFmgWELKkHrRanrGWu9tJtPcDkTkyVhkn0k3yznPb23oR30rMmn8Tbr8Ve02+t4P+PPp/m2mx2k/HCNCSa/VVwIa9d5fe1Pk7LeJsUT);strokeColor=none;strokeWidth=3;spacingTop=-3;spacingBottom=-3;spacingLeft=-3;spacingRight=-3;points=[];labelBackgroundColor=none;rounded=0;html=1;whiteSpace=wrap;" parent="IFgAx-EEVJAiXfjY6ULy-10" vertex="1">
          <mxGeometry x="8" y="17" width="18" height="2" as="geometry" />
        </mxCell>
        <mxCell id="IFgAx-EEVJAiXfjY6ULy-14" style="vsdxID=10086;fillColor=#ff9300;gradientColor=none;fillOpacity=75;strokeOpacity=75;shape=stencil(vVPLDoMgEPwajhoUbeLZ2v8gFZWUgllptX9fLKQ+aNPEJt6W3VlmZ2EQybuGtgzFuNOgLqznpW4QOaI45rJhwLWJECkQySsFrAZ1k6U9t3REjtFV3ccbBtuHx44YP+wpJSHOXpmTBVM4myo4cBqmkcWDa0gOYeZSHsZBIuw4hoAOvAtAaaq5kgt+QaFmgWELKkHrRanrGWu9tJtPcDkTkyVhkn0k3yznPb23oR30rMmn8Tbr8Ve02+t4P+PPp/m2mx2k/HCNCSa/VVwIa9d5fe1Pk7LeJsUT);strokeColor=none;strokeWidth=3;spacingTop=-3;spacingBottom=-3;spacingLeft=-3;spacingRight=-3;points=[];labelBackgroundColor=none;rounded=0;html=1;whiteSpace=wrap;" parent="IFgAx-EEVJAiXfjY6ULy-10" vertex="1">
          <mxGeometry x="8" y="20" width="18" height="2" as="geometry" />
        </mxCell>
        <UserObject label="&lt;div style=&quot;font-size: 1px&quot;&gt;&lt;p style=&quot;text-align:left;margin-left:0;margin-right:0;margin-top:0px;margin-bottom:0px;text-indent:0;vertical-align:middle;direction:ltr;&quot;&gt;&lt;font style=&quot;font-size:25.4px;font-family:Segoe UI Semibold;color:#000000;direction:ltr;letter-spacing:0px;line-height:120%;opacity:1&quot;&gt;Resource &lt;/font&gt;&lt;font style=&quot;font-size:25.4px;font-family:Segoe UI Semibold;color:#000000;direction:ltr;letter-spacing:0px;line-height:120%;opacity:1&quot;&gt;G&lt;/font&gt;&lt;font style=&quot;font-size:25.4px;font-family:Segoe UI Semibold;color:#000000;direction:ltr;letter-spacing:0px;line-height:120%;opacity:1&quot;&gt;roup(s)&lt;br/&gt;&lt;/font&gt;&lt;/p&gt;&lt;/div&gt;" tags="Background" id="IFgAx-EEVJAiXfjY6ULy-15">
          <mxCell style="verticalAlign=middle;align=left;overflow=width;vsdxID=10087;fillColor=none;gradientColor=none;shape=stencil(nZBLDoAgDERP0z3SIyjew0SURgSD+Lu9kMZoXLhwN9O+tukAlrNpJg1SzDH4QW/URgNYgZTkjA4UkwJUgGXng+6DX1zLfmoymdXo17xh5zmRJ6Q42BWCfc2oJfdAr+Yv+AP9Cb7OJ3H/2JG1HNGz/84klThPVCc=);strokeColor=none;points=[];labelBackgroundColor=none;rounded=0;html=1;whiteSpace=wrap;" parent="1" vertex="1">
            <mxGeometry x="145" y="226" width="318" height="64" as="geometry" />
          </mxCell>
        </UserObject>
        <UserObject label="&lt;div style=&quot;font-size: 1px&quot;&gt;&lt;p style=&quot;text-align:left;margin-left:0;margin-right:0;margin-top:0px;margin-bottom:0px;text-indent:0;vertical-align:middle;direction:ltr;&quot;&gt;&lt;font style=&quot;font-size:25.4px;font-family:Segoe UI Semibold;color:#000000;direction:ltr;letter-spacing:0px;line-height:120%;opacity:1&quot;&gt;Cost&lt;br/&gt;management&lt;br/&gt;&lt;/font&gt;&lt;/p&gt;&lt;/div&gt;" tags="Background" id="IFgAx-EEVJAiXfjY6ULy-16">
          <mxCell style="verticalAlign=middle;align=left;overflow=width;vsdxID=10088;fillColor=none;gradientColor=none;shape=stencil(nZBLDoAgDERP0z3SIyjew0SURgSD+Lu9kMZoXLhwN9O+tukAlrNpJg1SzDH4QW/URgNYgZTkjA4UkwJUgGXng+6DX1zLfmoymdXo17xh5zmRJ6Q42BWCfc2oJfdAr+Yv+AP9Cb7OJ3H/2JG1HNGz/84klThPVCc=);strokeColor=none;points=[];labelBackgroundColor=none;rounded=0;html=1;whiteSpace=wrap;" parent="1" vertex="1">
            <mxGeometry x="186.5" y="445" width="200" height="68" as="geometry" />
          </mxCell>
        </UserObject>
        <UserObject label="&lt;div style=&quot;font-size: 1px&quot;&gt;&lt;p style=&quot;text-align:left;margin-left:0;margin-right:0;margin-top:0px;margin-bottom:0px;text-indent:0;vertical-align:middle;direction:ltr;&quot;&gt;&lt;font style=&quot;font-size:25.4px;font-family:Segoe UI Semibold;color:#000000;direction:ltr;letter-spacing:0px;line-height:120%;opacity:1&quot;&gt;Azure&lt;br/&gt;Monitor&lt;br/&gt;&lt;/font&gt;&lt;/p&gt;&lt;/div&gt;" tags="Background" id="IFgAx-EEVJAiXfjY6ULy-17">
          <mxCell style="verticalAlign=middle;align=left;overflow=width;vsdxID=10089;fillColor=none;gradientColor=none;shape=stencil(nZBLDoAgDERP0z3SIyjew0SURgSD+Lu9kMZoXLhwN9O+tukAlrNpJg1SzDH4QW/URgNYgZTkjA4UkwJUgGXng+6DX1zLfmoymdXo17xh5zmRJ6Q42BWCfc2oJfdAr+Yv+AP9Cb7OJ3H/2JG1HNGz/84klThPVCc=);strokeColor=none;points=[];labelBackgroundColor=none;rounded=0;html=1;whiteSpace=wrap;" parent="1" vertex="1">
            <mxGeometry x="537" y="331" width="188" height="68" as="geometry" />
          </mxCell>
        </UserObject>
        <UserObject label="&lt;div style=&quot;font-size: 1px&quot;&gt;&lt;font style=&quot;font-size:25.4px;font-family:Segoe UI Semibold;color:#000000;direction:ltr;letter-spacing:0px;line-height:120%;opacity:1&quot;&gt;Role&lt;br/&gt;&lt;/font&gt;&lt;font style=&quot;font-size:25.4px;font-family:Segoe UI Semibold;color:#000000;direction:ltr;letter-spacing:0px;line-height:120%;opacity:1&quot;&gt;E&lt;/font&gt;&lt;font style=&quot;font-size:25.4px;font-family:Segoe UI Semibold;color:#000000;direction:ltr;letter-spacing:0px;line-height:120%;opacity:1&quot;&gt;nt&lt;/font&gt;&lt;font style=&quot;font-size:25.4px;font-family:Segoe UI Semibold;color:#000000;direction:ltr;letter-spacing:0px;line-height:120%;opacity:1&quot;&gt;i&lt;/font&gt;&lt;font style=&quot;font-size:25.4px;font-family:Segoe UI Semibold;color:#000000;direction:ltr;letter-spacing:0px;line-height:120%;opacity:1&quot;&gt;tlement&lt;br/&gt;&lt;/font&gt;&lt;/div&gt;" tags="Background" id="IFgAx-EEVJAiXfjY6ULy-18">
          <mxCell style="verticalAlign=middle;align=center;overflow=width;vsdxID=10090;fillColor=none;gradientColor=none;shape=stencil(nZBLDoAgDERP0z3SIyjew0SURgSD+Lu9kMZoXLhwN9O+tukAlrNpJg1SzDH4QW/URgNYgZTkjA4UkwJUgGXng+6DX1zLfmoymdXo17xh5zmRJ6Q42BWCfc2oJfdAr+Yv+AP9Cb7OJ3H/2JG1HNGz/84klThPVCc=);strokeColor=none;points=[];labelBackgroundColor=none;rounded=0;html=1;whiteSpace=wrap;" parent="1" vertex="1">
            <mxGeometry y="608" width="177" height="60" as="geometry" />
          </mxCell>
        </UserObject>
        <UserObject label="&lt;div style=&quot;font-size: 1px&quot;&gt;&lt;font style=&quot;font-size:25.4px;font-family:Segoe UI Semibold;color:#000000;direction:ltr;letter-spacing:0px;line-height:120%;opacity:1&quot;&gt;Policy &lt;/font&gt;&lt;font style=&quot;font-size:25.4px;font-family:Segoe UI Semibold;color:#000000;direction:ltr;letter-spacing:0px;line-height:120%;opacity:1&quot;&gt;&lt;br/&gt;&lt;/font&gt;&lt;font style=&quot;font-size:25.4px;font-family:Segoe UI Semibold;color:#000000;direction:ltr;letter-spacing:0px;line-height:120%;opacity:1&quot;&gt;A&lt;/font&gt;&lt;font style=&quot;font-size:25.4px;font-family:Segoe UI Semibold;color:#000000;direction:ltr;letter-spacing:0px;line-height:120%;opacity:1&quot;&gt;ssignment&lt;br/&gt;&lt;/font&gt;&lt;/div&gt;" tags="Background" id="IFgAx-EEVJAiXfjY6ULy-19">
          <mxCell style="verticalAlign=middle;align=center;overflow=width;vsdxID=10091;fillColor=none;gradientColor=none;shape=stencil(nZBLDoAgDERP0z3SIyjew0SURgSD+Lu9kMZoXLhwN9O+tukAlrNpJg1SzDH4QW/URgNYgZTkjA4UkwJUgGXng+6DX1zLfmoymdXo17xh5zmRJ6Q42BWCfc2oJfdAr+Yv+AP9Cb7OJ3H/2JG1HNGz/84klThPVCc=);strokeColor=none;points=[];labelBackgroundColor=none;rounded=0;html=1;whiteSpace=wrap;" parent="1" vertex="1">
            <mxGeometry x="185" y="608" width="203" height="60" as="geometry" />
          </mxCell>
        </UserObject>
        <UserObject label="&lt;div style=&quot;font-size: 1px&quot;&gt;&lt;font style=&quot;font-size:25.4px;font-family:Segoe UI Semibold;color:#000000;direction:ltr;letter-spacing:0px;line-height:120%;opacity:1&quot;&gt;Network&lt;br/&gt;Watcher&lt;br/&gt;&lt;/font&gt;&lt;/div&gt;" tags="Background" id="IFgAx-EEVJAiXfjY6ULy-20">
          <mxCell style="verticalAlign=middle;align=center;overflow=width;vsdxID=10092;fillColor=none;gradientColor=none;shape=stencil(nZBLDoAgDERP0z3SIyjew0SURgSD+Lu9kMZoXLhwN9O+tukAlrNpJg1SzDH4QW/URgNYgZTkjA4UkwJUgGXng+6DX1zLfmoymdXo17xh5zmRJ6Q42BWCfc2oJfdAr+Yv+AP9Cb7OJ3H/2JG1HNGz/84klThPVCc=);strokeColor=none;points=[];labelBackgroundColor=none;rounded=0;html=1;whiteSpace=wrap;" parent="1" vertex="1">
            <mxGeometry x="385" y="608" width="152" height="60" as="geometry" />
          </mxCell>
        </UserObject>
        <UserObject label="&lt;div style=&quot;font-size: 1px&quot;&gt;&lt;font style=&quot;font-size:25.4px;font-family:Segoe UI Semibold;color:#000000;direction:ltr;letter-spacing:0px;line-height:120%;opacity:1&quot;&gt;Security&lt;br/&gt;Center&lt;br/&gt;&lt;/font&gt;&lt;/div&gt;" tags="Background" id="IFgAx-EEVJAiXfjY6ULy-21">
          <mxCell style="verticalAlign=middle;align=center;overflow=width;vsdxID=10093;fillColor=none;gradientColor=none;shape=stencil(nZBLDoAgDERP0z3SIyjew0SURgSD+Lu9kMZoXLhwN9O+tukAlrNpJg1SzDH4QW/URgNYgZTkjA4UkwJUgGXng+6DX1zLfmoymdXo17xh5zmRJ6Q42BWCfc2oJfdAr+Yv+AP9Cb7OJ3H/2JG1HNGz/84klThPVCc=);strokeColor=none;points=[];labelBackgroundColor=none;rounded=0;html=1;whiteSpace=wrap;" parent="1" vertex="1">
            <mxGeometry x="601" y="608" width="152" height="60" as="geometry" />
          </mxCell>
        </UserObject>
        <UserObject label="" tags="Background" id="IFgAx-EEVJAiXfjY6ULy-22">
          <mxCell style="vsdxID=10094;fillColor=none;gradientColor=none;points=[];labelBackgroundColor=none;rounded=0;strokeColor=none;html=1;whiteSpace=wrap;" parent="1" vertex="1">
            <mxGeometry x="93" y="232" width="48" height="45" as="geometry" />
          </mxCell>
        </UserObject>
        <mxCell id="IFgAx-EEVJAiXfjY6ULy-23" style="vsdxID=10095;fillColor=none;gradientColor=none;strokeColor=none;spacingTop=-3;spacingBottom=-3;spacingLeft=-3;spacingRight=-3;points=[];labelBackgroundColor=none;rounded=0;html=1;whiteSpace=wrap;" parent="IFgAx-EEVJAiXfjY6ULy-22" vertex="1">
          <mxGeometry width="11" height="45" as="geometry" />
        </mxCell>
        <mxCell id="IFgAx-EEVJAiXfjY6ULy-24" style="vsdxID=10096;fillColor=#949494;gradientColor=none;shape=stencil(vVXBdoMgEPwaj+6DBQXOafofvoYkvFrNQ9ukf18sJs1KNZckN1l2WWYcZjOx6vbVwWbIut637/boNv0+Ey8Zomv21rs+fGVinYnVtvV259vPZhPXh2rIHL4+2q/hhFOsY0MFsu+40goM/kZeY3Ll38KuH5MFSB3z/VjAQJsYGVM4mJIeqUGNkVNenVyX+7avetc25AJ15Xc2D+3ybV3tyFZ3tPaQhMcL1q65QiMYIJL2BkGL+QKlgUlaYMDweQokCKQUcOCcUKAFqOmRBT6LgtBM6SkFRbGEiIspIlYSREYD0r9qOCB/FiSJwCmjgeLxinM6lYlONYEkE6VoBBR3hcQXICXtuTo/pRlIZfL0TEEhJTSdl4/HkypEg14Qnbj4xkV0VHGJihUU90WzILjkBTMo5KInlIknIMGT+gy7BB6PZ6H7/zYaHMCQ/BLUgosmps/ZjTlSqkTMkhBG5xLnoJ9mNzdGYvj4G6ZbV9dxFl/vT4dvCMXBLdY/);strokeColor=none;spacingTop=-3;spacingBottom=-3;spacingLeft=-3;spacingRight=-3;points=[];labelBackgroundColor=none;rounded=0;html=1;whiteSpace=wrap;" parent="IFgAx-EEVJAiXfjY6ULy-23" vertex="1">
          <mxGeometry width="11" height="45" as="geometry" />
        </mxCell>
        <mxCell id="IFgAx-EEVJAiXfjY6ULy-25" style="vsdxID=10097;fillColor=#a3a3a3;gradientColor=none;shape=stencil(vVTBdoMgEPwaju5DFgXOafofvAaVVys+tE3y98WijaSantrbsjOzy44uBA9Do3tDGB1G717N2Z7GhuATYcx2jfF2DBHBI8FD5bypvXvvTvHc64k5RW/uY6pwiTpOgfFJxeg1ZnJKv87Pkd7abk3PQYiErgQI3BcoCSzhFxS4WvO1fwmon/kILKLUzwIOsoyZpaQCVSQ1OQeaz5xMX+yQeTfq0bou4nEg2mpfmyz0y6pW1wk0nI3pf6S3J3rQflMgEUSZCHDxfMcCfmdBAblILBDqO3NN5vj78fdab5KRQpl+flQgH3iVQ4EJvwzeyn2vbvzFKwYs/V1oWq8E5P/lVbieTL2SHITaF/y6jSG4bXJl2zY+BGv8fvNDKr4aePwE);strokeColor=none;spacingTop=-3;spacingBottom=-3;spacingLeft=-3;spacingRight=-3;points=[];labelBackgroundColor=none;rounded=0;html=1;whiteSpace=wrap;" parent="IFgAx-EEVJAiXfjY6ULy-23" vertex="1">
          <mxGeometry width="11" height="7" as="geometry" />
        </mxCell>
        <mxCell id="IFgAx-EEVJAiXfjY6ULy-26" style="vsdxID=10098;fillColor=#a3a3a3;gradientColor=none;shape=stencil(vVTRbsMgDPwaHmMBDiE8d91/oJUkaFmoSLZ2fz8y0i2ulmrTpr0Z350tHxiGu7GzR8ckH6cYHt3JH6aO4R2T0g+di35KEcM9w10TomtjeB4O+Xy0M3OOnsLLXOGcdaYGqWaV5K85Uxow4j1znwW9H1aCUkCliQBBruk2PiQsXugglvJxoVfAq5xZKPjR8FKRL3hhz34sYpjs5MNAsN7G1hWpV9H0tiXQeHLuuErfGIbTQRTU5TZZAMqf8KWBis6lDAizLdA1aCQCcy2g5iIoQc1VICQxt0bQ9LqMBmX+1GC+PdKt9l+bzOmdKA1S/8qB9MI5dVVxqPV/OfCNBUvB53o2vu/zdq/x63VOqfwV4P4N);strokeColor=none;spacingTop=-3;spacingBottom=-3;spacingLeft=-3;spacingRight=-3;points=[];labelBackgroundColor=none;rounded=0;html=1;whiteSpace=wrap;" parent="IFgAx-EEVJAiXfjY6ULy-23" vertex="1">
          <mxGeometry y="37" width="11" height="7" as="geometry" />
        </mxCell>
        <mxCell id="IFgAx-EEVJAiXfjY6ULy-27" style="vsdxID=10099;fillColor=#949494;gradientColor=none;shape=stencil(vVXLVoMwEP0alszJTMhrXet/cCxtOSL0BLT17wUDSIjETe0uybxy53En4bv2nF+KhFjb2ea1uJaH7pzwp4SorM+FLbv+lPB9wnfHxhYn27zXB3e/5IPmcHprPgYPN2eHjA02xD7dXSsw9P3y7NRz+9JL7ajOIdNO344GDLRxL6OK0cAy36cGJUedNL+VbWqbLu/Kph5dOFmV21OR9vHSY5WfPFF7LYrL4hmXP6zKegFIGlDaC28INN82IAQjfQMDBrdzkAEnPwcIiF4OUAJfuxT0qBQwIFpnQIgYIORrQEz6gED5NTUIhI8CJNRUwbml+PTDDURMB4iEh0gEfaIJiN8VEotACsKjmiZpY/JkMHlmBSlIE6pH4QkaRIOOtByfWWMukAclaGEF4r5YIu0WTC8DkUX5QAZ8QB6ckGPYTJL/jycS/XcK7fnaU5egIgQaEj72ralixZ+4cNHKPt2sthIi6IexzZ8rsT/8rNNjWVVuGy/l6/XbP7nVzfdf);strokeColor=none;spacingTop=-3;spacingBottom=-3;spacingLeft=-3;spacingRight=-3;points=[];labelBackgroundColor=none;rounded=0;html=1;whiteSpace=wrap;" parent="IFgAx-EEVJAiXfjY6ULy-22" vertex="1">
          <mxGeometry x="36" width="11" height="45" as="geometry" />
        </mxCell>
        <mxCell id="IFgAx-EEVJAiXfjY6ULy-28" style="vsdxID=10100;fillColor=#32bedd;gradientColor=none;shape=stencil(lZBhCoMwDIVPk79SG+cF1N1DsK7B2krt1N1+LWFsDhzu33vJ90J4gNWs20mBFHPwblArdUED1iAlWa08hagAG8Cqd17dvLvbjv3UJjKp0S3pwsa5XIiUkeLBnt2VUUP2B1qW2SU/xvfwK3wCRcyK81/88fAOjeLdSU/GcKWf++8O44j7x+YJ);strokeColor=none;spacingTop=-3;spacingBottom=-3;spacingLeft=-3;spacingRight=-3;points=[];labelBackgroundColor=none;rounded=0;html=1;whiteSpace=wrap;" parent="IFgAx-EEVJAiXfjY6ULy-22" vertex="1">
          <mxGeometry x="24" y="13" width="15" height="26" as="geometry" />
        </mxCell>
        <mxCell id="IFgAx-EEVJAiXfjY6ULy-29" style="vsdxID=10101;fillColor=#9cebff;gradientColor=none;shape=stencil(UzV2Ls5ILEhVNTIoLinKz04tz0wpyVA1dlE1MsrMy0gtyiwBslSNXVWNndPyi1LTi/JL81Ig/IJEkEoQKze/DGRCBUSfoYEBSI+RQSWEbwrhukHU5mTmIak1RVUK04pVLdmm4lFJilvxqwUyEAGSlpmTAwlPZHn0AAQKQQLf2BUA);strokeColor=none;spacingTop=-3;spacingBottom=-3;spacingLeft=-3;spacingRight=-3;points=[];labelBackgroundColor=none;rounded=0;html=1;whiteSpace=wrap;" parent="IFgAx-EEVJAiXfjY6ULy-22" vertex="1">
          <mxGeometry x="9" y="5" width="30" height="17" as="geometry" />
        </mxCell>
        <mxCell id="IFgAx-EEVJAiXfjY6ULy-30" style="vsdxID=10102;fillColor=#50e6ff;gradientColor=none;shape=stencil(UzV2Ls5ILEhVNTIoLinKz04tz0wpyVA1dlE1MsrMy0gtyiwBslSNXVWNndPyi1LTi/JL81Ig/IJEkEoQKze/DGRCBUSfoYEBSI+RQSWEb2ysZ2IJFnGDKM/JzMOjHMbHqhhVqZmZnqkhsYrxmEqhizGUAxmIwEnLzMmBhC2yPHpgAoUgEWHsCgA=);strokeColor=none;spacingTop=-3;spacingBottom=-3;spacingLeft=-3;spacingRight=-3;points=[];labelBackgroundColor=none;rounded=0;html=1;whiteSpace=wrap;" parent="IFgAx-EEVJAiXfjY6ULy-22" vertex="1">
          <mxGeometry x="9" y="13" width="15" height="26" as="geometry" />
        </mxCell>
        <mxCell id="IFgAx-EEVJAiXfjY6ULy-31" style="vsdxID=10103;fillColor=#a3a3a3;gradientColor=none;shape=stencil(vZTdboMwDIWfJpdY+SGEXHfde0RrgGiMoEDX7u0XFsrwVpgmTbsz9jm2/IEh4jA0preE02EM/tle3GlsiHggnLuuscGNMSLiSMSh8sHWwZ+7U3ruzaScohf/OnW4Jh8DKSYTp28pkWvQ6iPzmPSt61Z6WQLPkUEAX8tNeIq1cJODTOIwq0ugSb40jPM0akjnemaubsiCH83ofIdqrQm1zeKorGpNjUrDxdr+W/ruLoxSvImEcmf1X8oVgwKTiqtyuW3gHHKGDDoa9DZcAbrAdCUohegyBQy/X62g0H9KmO0g2xl/10BvSBdmCoTYQzADWhDkUGIC2x/4fwD48bxi8HmblWvbdNrr+tdbjqn0HxDHdw==);strokeColor=none;spacingTop=-3;spacingBottom=-3;spacingLeft=-3;spacingRight=-3;points=[];labelBackgroundColor=none;rounded=0;html=1;whiteSpace=wrap;" parent="IFgAx-EEVJAiXfjY6ULy-22" vertex="1">
          <mxGeometry x="36" y="37" width="11" height="7" as="geometry" />
        </mxCell>
        <mxCell id="IFgAx-EEVJAiXfjY6ULy-32" style="vsdxID=10104;fillColor=#9cebff;gradientColor=none;shape=stencil(UzV2Ls5ILEhVNTIoLinKz04tz0wpyVA1dlE1MsrMy0gtyiwBslSNXVWNndPyi1LTi/JL81Ig/IJEkEoQKze/DGRCBUSfAUiHkUElhGdiqWduCBZxgyjOycxDUmxogKrcgHilMD5WxSQ5goBiIAPh17TMnBxIUCHLo4cNUAgSrsauAA==);strokeColor=none;spacingTop=-3;spacingBottom=-3;spacingLeft=-3;spacingRight=-3;points=[];labelBackgroundColor=none;rounded=0;html=1;whiteSpace=wrap;" parent="IFgAx-EEVJAiXfjY6ULy-22" vertex="1">
          <mxGeometry x="9" y="22" width="15" height="17" as="geometry" />
        </mxCell>
        <mxCell id="IFgAx-EEVJAiXfjY6ULy-33" style="vsdxID=10105;fillColor=#50e6ff;gradientColor=none;shape=stencil(UzV2Ls5ILEhVNTIoLinKz04tz0wpyVA1dlE1MsrMy0gtyiwBslSNXVWNndPyi1LTi/JL81Ig/IJEkEoQKze/DGRCBUSfoYEBSI+RQSWEb2KpZ24IFnGDKM/JzENSjqrYgFiFMFuwKiXRCQSVAxkI36Zl5uRAAgtZHj10gEKQkDV2BQA=);strokeColor=none;spacingTop=-3;spacingBottom=-3;spacingLeft=-3;spacingRight=-3;points=[];labelBackgroundColor=none;rounded=0;html=1;whiteSpace=wrap;" parent="IFgAx-EEVJAiXfjY6ULy-22" vertex="1">
          <mxGeometry x="24" y="22" width="15" height="17" as="geometry" />
        </mxCell>
        <UserObject label="" tags="Background" id="IFgAx-EEVJAiXfjY6ULy-34">
          <mxCell style="vsdxID=10106;fillColor=none;gradientColor=none;points=[];labelBackgroundColor=none;rounded=0;strokeColor=none;html=1;whiteSpace=wrap;" parent="1" vertex="1">
            <mxGeometry x="103" y="450" width="73" height="65" as="geometry" />
          </mxCell>
        </UserObject>
        <mxCell id="IFgAx-EEVJAiXfjY6ULy-35" style="vsdxID=10107;fillColor=#76bc2d;gradientColor=none;shape=stencil(xZTNcoQgDMefhqMMH4Jy3m7fg+miMrXiIO1u375YaJVS9tCDvUHyJ/GXxAB6WgY5K0DQ4qx5Vld9cQOgD4AQPQ3KaudPgJ4BPXXGqt6a1+kS7rNclevpxbytEW7hHReQNOsrgt6DBX3eHoN41NNOTBFsaFks7ZP32CjGGDIexDaqMYFtG0xRRHxElkTksCZRUsmbXiprnHTaTPuEaJS2V5VPWHWj7BPXclVqzsy/8vgvTHFqCjm5ixTdeyTBEqQsKPNI/CikvKCCQtbeb1PeJZIg5X3HCB1FlE/oV/ISTy1yIJwANT5mqUoHIIkW1inSNiN/H7w86jbOB0DlNf3+lYuD1+RMCVJpO/3L2CVif9hWaqfHMWzkvf/nCvamsL7p+QM=);strokeColor=none;spacingTop=-3;spacingBottom=-3;spacingLeft=-3;spacingRight=-3;points=[];labelBackgroundColor=none;rounded=0;html=1;whiteSpace=wrap;" parent="IFgAx-EEVJAiXfjY6ULy-34" vertex="1">
          <mxGeometry width="73" height="65" as="geometry" />
        </mxCell>
        <mxCell id="IFgAx-EEVJAiXfjY6ULy-36" style="vsdxID=10108;fillColor=#FFFFFF;gradientColor=none;fillOpacity=90;strokeOpacity=90;shape=stencil(vVfddtowDH6aXKJjS/7Ldde9R04bIGeMcAJdu7efWOwEOcNtN9hdkCV/0qc/U9HDcdsc2grV8TT039rX7vm0rehLhdjtt+3QnfiroseKHtb90G6G/mX/PP4+NGfN89f3/sf5hrfRzioIdLZC9XOUaA0u/JZ8HQ2a4YlPh2igDWg9GgzRwkGIkqjjLCgjLjVQ+6iyat6642roT82p6/fjsRrPds2waVeMt1rvmk3EG4+Or217WIiveYhLD53wsBT2p11UH3Bx1+0/x7pMEzlwKAxqAm3+jYRlmuZLb0WCuk5CCf6vYyoRdavaK8T0gTxl/acn76KBV2ALJKCdui2RoBGMZIGVtLjUEdB/q24loS34QjzGAXoZDyKQFfGYGmwtbg1qGkP3qNSnl2HMko5JCRBSmvTSA4ycqBR6FHiENPYoV4kCx8HSdXqI2auzdHvAIOhhV5wctxacvR87WUVy/dncR4XgZE1yDk2QXuq7Tps8h+SnJZRySPXEbsohcfvJJJ57OvFNC6Uk4Uz7wujinKGkKADpdwjiNra3LfLC2uQdTVkj8lLyXvjIBS33FukpsPsPFp6lIWPIpwXw5+FiwGTDEjWYxXCRs0U7qOubxlSsS6xBp2rSSw9iFc5jP9UlRzKNSVoopbok8FhCvzCJEhPAWwmOWUvw1pr2boLmyqgltjVpL13DZqQM3PKjACW45w1KGb4HjRL/UmserT6U8C+qWU/LKifecS4y5ucVPYevwToJv1jk2Rvw/c3PH/O7fd3tduOz//I8f+ezaPyPQI+/AA==);strokeColor=none;spacingTop=-3;spacingBottom=-3;spacingLeft=-3;spacingRight=-3;points=[];labelBackgroundColor=none;rounded=0;html=1;whiteSpace=wrap;" parent="IFgAx-EEVJAiXfjY6ULy-34" vertex="1">
          <mxGeometry x="24" y="8" width="24" height="50" as="geometry" />
        </mxCell>
        <UserObject label="" tags="Background" id="IFgAx-EEVJAiXfjY6ULy-37">
          <mxCell style="vsdxID=10109;fillColor=none;gradientColor=none;points=[];labelBackgroundColor=none;rounded=0;strokeColor=none;html=1;whiteSpace=wrap;" parent="1" vertex="1">
            <mxGeometry x="441" y="330" width="76" height="60" as="geometry" />
          </mxCell>
        </UserObject>
        <mxCell id="IFgAx-EEVJAiXfjY6ULy-38" style="vsdxID=10110;fillColor=#0078d4;gradientColor=none;shape=stencil(vVTLcsIwDPyaHKOxpcSPM4X/8IABT9OEcUKBv29SmxS7zHAiN1taWevVo6BVfzQnWyDrB9992ovbDceCPgpE1x6td8N4Kmhd0GrfeXvw3bndhfvJTMjp9NV9Ty9cQxxnbIpBdgt3oUD+GjYBbfx2dPqIRoSaAt7HAOKgeDBFkGJQJ2+SAq4jpDRX15e+G8zgujb4I4PG+IMtx4TlvjGHxNVfrD39Mz+nqIB4RlGDFgnFmgNVCUe2GD8NTKb8Kg6MEn5IUIuEHwoQy2koQGGmoQSVapj1DQHni/GTgDk/BVWm4dh1aY3nXn8Hw+3Zh7ni9zrH3DxPjnMjqMj4hjmG4q8YiPssUYqJaRvXPkyzFID86Z+f6liBrlMZBWiVqCjlrGuEaA1SLlZpnJPNlca5rq922FsIpoq/2p/j4W/17l3ThM396M9X9WgKa57WPw==);strokeColor=none;spacingTop=-3;spacingBottom=-3;spacingLeft=-3;spacingRight=-3;points=[];labelBackgroundColor=none;rounded=0;html=1;whiteSpace=wrap;" parent="IFgAx-EEVJAiXfjY6ULy-37" vertex="1">
          <mxGeometry width="76" height="54" as="geometry" />
        </mxCell>
        <mxCell id="IFgAx-EEVJAiXfjY6ULy-39" style="vsdxID=10111;fillColor=#50e6ff;gradientColor=none;shape=stencil(vVPbcoMgEP0aHmWAVdDnNPkPJkFlasVB0ti/r85iC7bpY9/2cpazy54lcJp7PRki2By8ezUPews9gRcihB17421YLQJnAqfWedN5dx9v6E96Q27Wm3vfXliwrmJbiWAf6KJ3QeT17hHKMVkzykWE8xTPFoFuU9NqR8QQSCpVRAGGONtJY6CWVJUps/bXNe1jj4qqBgt8bJMLqiA+GpkFlZCN8sWyFHqxc+Fd0MG6MWt80L4zxUpXtIPustT8MGZKwjxtcLBj8olqb//I/Wyc8sc4ssrGybdSKyr+a5YDs9wX+kQTnJZ1Lol04VEDvKHNvhyRCwcOMoRfdJg3+JdiV+Nb6K0dBryTNH88jDWERwXnTw==);strokeColor=none;spacingTop=-3;spacingBottom=-3;spacingLeft=-3;spacingRight=-3;points=[];labelBackgroundColor=none;rounded=0;html=1;whiteSpace=wrap;" parent="IFgAx-EEVJAiXfjY6ULy-37" vertex="1">
          <mxGeometry x="21" y="27" width="54" height="33" as="geometry" />
        </mxCell>
        <mxCell id="IFgAx-EEVJAiXfjY6ULy-40" style="vsdxID=10112;fillColor=#FFFFFF;gradientColor=none;shape=stencil(xVTbcoMgEP0aHt1BFgM8p+l/MAkqUysOmsb8fbSgkXTSmT5k+raXs5zD7gLBfV/rzhBG+8G7D3Oxp6Em+EYYs21tvB0mi+CB4L503lTendtT8Ds9I2fr033NJ4yhjoFUcxGj1xDIKf323wNa++OU8ytaRLSPcA4KQyRCKEhMDlQSeBEhmR5tn3k36MG6NhaEXKN9ZbKJLisbXSWp/mJMtwnnvwrER4GSpQJTdRxE/jp1x7MP3c5jEnaRPgZQAOWRn8U7cKAyolhCNWJwCwp0aTJuEU9YRQFKpLw05dwMaeHcKsN0N1bWe/eeTYP/mEa6LkoBY/+5L1KkCou1+YtCAfkuUbi24RX6Gtv+4XlOxv1ll7ZpwsewzT/+BFMo/CJ4uAE=);strokeColor=none;spacingTop=-3;spacingBottom=-3;spacingLeft=-3;spacingRight=-3;points=[];labelBackgroundColor=none;rounded=0;html=1;whiteSpace=wrap;" parent="IFgAx-EEVJAiXfjY6ULy-37" vertex="1">
          <mxGeometry x="24" y="30" width="48" height="27" as="geometry" />
        </mxCell>
        <mxCell id="IFgAx-EEVJAiXfjY6ULy-41" style="vsdxID=10113;fillColor=#9cebff;gradientColor=none;shape=stencil(rVLREoIgEPwaHmVQVPS57D+YRGUicQ5K+/swtKLG6aW3u929O5Y7RHem44NACTEW9EmMsrYdonuUJLLvBEjrIkQrRHeNBtGCvvS1zwc+K+forK9zh8nXxYTMNQm5+TylmOUP5ODlHI6OhVWes5UnsJTELMaFhxZV2HLJpohP0kSgLbdS9wGnOLQicqOiRvE2oMwoxPAFL49TshdbY1mJ82zbSZlhRkMjZYEJDYykOc6KoOvzv/5kJ96283M1LnittZFK+at45z/PwEH+hGh1Bw==);strokeColor=none;spacingTop=-3;spacingBottom=-3;spacingLeft=-3;spacingRight=-3;points=[];labelBackgroundColor=none;rounded=0;html=1;whiteSpace=wrap;" parent="IFgAx-EEVJAiXfjY6ULy-37" vertex="1">
          <mxGeometry x="49" y="33" width="11" height="11" as="geometry" />
        </mxCell>
        <mxCell id="IFgAx-EEVJAiXfjY6ULy-42" style="vsdxID=10114;fillColor=#50e6ff;gradientColor=none;shape=stencil(rVLLDoMgEPwajhIePuq5tf9BKiopFbPSav++WDQVE9tLb8vM7C4Dg/ixb0QnESO9BXOVgyptg/gJMabaRoKyrkK8QPxYGZA1mHtb+nMnJuVU3cxjmjD6PjJ1MPL0p5jjNH4jZy/Wql2JE0fzoIESspYLuDgOZnlOce7VMMvzGHPmoTEcsAzMcnxYFJEYVR+BscIq0wb31QJqGbl1UaVFHVD9IGW3gum+n+3yL15omuEsDt3QjGGaBHb2nvNfZsi+mR8/6YpPBiqltY/Qmt9mxkE+b7x4AQ==);strokeColor=none;spacingTop=-3;spacingBottom=-3;spacingLeft=-3;spacingRight=-3;points=[];labelBackgroundColor=none;rounded=0;html=1;whiteSpace=wrap;" parent="IFgAx-EEVJAiXfjY6ULy-37" vertex="1">
          <mxGeometry x="35" y="33" width="11" height="11" as="geometry" />
        </mxCell>
        <mxCell id="IFgAx-EEVJAiXfjY6ULy-43" style="vsdxID=10115;fillColor=#9cebff;gradientColor=none;shape=stencil(rVLLEoIwDPyaHumkjYicffxHRwt0rJQJVfHvLZZR6uh48ZZkN9nsJAzXfaM6zST0ntxRX83BNww3TErTNpqMDxHDLcN15UjX5M7tIeadGpljdHKXccIQ+2DskHCLWY58gY/KLpIV7QNKE1mA5BBxoKmlXHCxiqWJJYHLIhkrYJIZMjWYPiPnlTeuTVawimqdBcGssqpOoP6qdTcri/mK1rQzP0+pN+nPflYFxzL1IwrJyyIxlC95jsnU/9qB73Z+nCcEr8NWxtr4F3P8/RFCKT4Rbu8=);strokeColor=none;spacingTop=-3;spacingBottom=-3;spacingLeft=-3;spacingRight=-3;points=[];labelBackgroundColor=none;rounded=0;html=1;whiteSpace=wrap;" parent="IFgAx-EEVJAiXfjY6ULy-37" vertex="1">
          <mxGeometry x="57" y="40" width="11" height="12" as="geometry" />
        </mxCell>
        <mxCell id="IFgAx-EEVJAiXfjY6ULy-44" style="vsdxID=10116;fillColor=#32bedd;gradientColor=none;shape=stencil(rVLLDsIgEPwajiUUrJWz1v8gSlsilmZBrX8vBKtF23gx4bCP2VkGBrGtbUUvESXWgTnJmzq6FrEdolR1rQTlfIRYhdi2NiAbMJfuGPNeBGSIzuYaGIY4lxMSZii5x7xgOKT+7CNcq24CXzG85skAmYIFHHwHRu7NCpd5RMMTnpcEF7E0TAlGutd9hkwMymZgnHDKdAlWC2hk5pdltRZN0rI3Kfuv8qyWko83+dg9L4ZQzHkqhheYlImY5ef8l6B8WdDPv/TB2we10jraaNr/9I0vRc+x6gE=);strokeColor=none;spacingTop=-3;spacingBottom=-3;spacingLeft=-3;spacingRight=-3;points=[];labelBackgroundColor=none;rounded=0;html=1;whiteSpace=wrap;" parent="IFgAx-EEVJAiXfjY6ULy-37" vertex="1">
          <mxGeometry x="28" y="40" width="11" height="12" as="geometry" />
        </mxCell>
        <mxCell id="IFgAx-EEVJAiXfjY6ULy-45" style="vsdxID=10117;fillColor=#32bedd;gradientColor=none;shape=stencil(vVLRDoIwDPyaPbLAijCeFf9j0QGLk5EyFf/e4SAyjfpg4lt7d23X7gis+0Z0krC4t2gO8qL2tiGwIYyptpGorIsIlATWlUFZozm1e593YlSO0dGcxw6Dr0vieKxh8XXOKRR3ZOvlAneOxUle0BS8HucCThPuoUnDc8p50HQaMURiUH2ExgqrTBtwWmAtIzcsqrSoA6q/SNm9wNPztGoX24S7ZDldwXtxRnN42v1D6yKlWRLIgdE0/+1U76//h2N9/XoXPGxTKa2965b8s80c5C0K5Q0=);strokeColor=none;spacingTop=-3;spacingBottom=-3;spacingLeft=-3;spacingRight=-3;points=[];labelBackgroundColor=none;rounded=0;html=1;whiteSpace=wrap;" parent="IFgAx-EEVJAiXfjY6ULy-37" vertex="1">
          <mxGeometry x="50" y="44" width="14" height="7" as="geometry" />
        </mxCell>
        <mxCell id="IFgAx-EEVJAiXfjY6ULy-46" style="vsdxID=10118;fillColor=#767676;gradientColor=none;shape=stencil(vVHLDsIgEPwajiQI6RfU+h8bu22JCGRB2/69kG1iazx58DazM/vIjjBtmiCi0CplCjecbZ8nYc5Ca+snJJsLEqYTph0C4Ujh4XvmEaqzont41gkL96naodXKrGF6YSfQtUi0OXXDVlqPfJNP6usotUhYbJIUMmQb/GGrAxpRljVycDBuc1hKM2LclX8/7H9nFfB+82Cd45T2+mcspcSRmu4F);strokeColor=none;spacingTop=-3;spacingBottom=-3;spacingLeft=-3;spacingRight=-3;points=[];labelBackgroundColor=none;rounded=0;html=1;whiteSpace=wrap;" parent="IFgAx-EEVJAiXfjY6ULy-37" vertex="1">
          <mxGeometry x="44" y="47" width="7" height="7" as="geometry" />
        </mxCell>
        <UserObject label="" tags="Background" id="IFgAx-EEVJAiXfjY6ULy-47">
          <mxCell style="vsdxID=10119;fillColor=none;gradientColor=none;points=[];labelBackgroundColor=none;rounded=0;strokeColor=none;html=1;whiteSpace=wrap;" parent="1" vertex="1">
            <mxGeometry x="647" y="547" width="50" height="60" as="geometry" />
          </mxCell>
        </UserObject>
        <mxCell id="IFgAx-EEVJAiXfjY6ULy-48" style="vsdxID=10120;fillColor=#0078d4;gradientColor=none;shape=stencil(vZTRdoMgDIafxktzgAjKdde9B6fFljOnPWhX+/bDgUfjtm432x3+CUn4EpPhrj+bi80E6wffvdibOw7nDJ8yIVx7tt4N4ZThPsNd3Xl78t21Pcbvi5k8p9Nr9zZFGOM9zth0R7B7/C4UqPJDeY7uh6uP/nx7IQklgpRRGkWUFAPkyStJWgIvkxdGSXJQySkpWoPU6+TGH4LZp1oFVCmRv88KzkFT+RUU5D1LSDbmZnR97rvBDK5roz09pjH+ZPOQLq8bcyKm/mbtZSXzR3RQg9KUT3h5ISgfRtlMBDVlwyiYT11pXLtqIm0hLwDxe4oIfAtRVgQiApM0IodS/iNEBF1RiKECVlGIQkGFFCTbDNiGInuUNDRhHtA5KaMJlQImaMJ1WfMMK9CS5l3w/boh8zh8/ZMuHf6TftDh+nFDhMOyXWrXNHE5re3bbRSkuMlw/w4=);strokeColor=none;spacingTop=-3;spacingBottom=-3;spacingLeft=-3;spacingRight=-3;points=[];labelBackgroundColor=none;rounded=0;html=1;whiteSpace=wrap;" parent="IFgAx-EEVJAiXfjY6ULy-47" vertex="1">
          <mxGeometry width="50" height="60" as="geometry" />
        </mxCell>
        <mxCell id="IFgAx-EEVJAiXfjY6ULy-49" style="vsdxID=10121;fillColor=#0078d4;gradientColor=none;shape=stencil(tVTBkoMgDP0aj2aACJZzt/sfTIsts6520G7t3y8uaI2ddk+94SPhJe/FZLjtTuZsM8G63rdf9uoO/SnDj0wI15ysd304ZbjLcFu13h59e2kO8ftsxsjx9N3+jC8MMY8zNuYIdovfhQIl/5DPGL6/+BjP1wkJKBFUEaFBREgxQJ6iEqQlCJWiMEKSz4m3BGkNCpfsxu/DtU/FIoiU4FO5Asr0aCp/A6hIQ/cn2ZCbwXW5b3vTu7aJ96mb2vijzQNdXtXmSK66q7XnBcxfyYOBTlOBQutsQwViVJylhEgj8IkttWsWLlIPeQFSvFKRq7WKM/0ESKoi51CU71ORdoPA5BP2Z6oj6JKqHnLYNHBJZqFATwNHjZhHciU7e0UaXJsYJlJGCZUChpRwWdY09KEsSXkfGn5wkK8dlJo4uP6vw0zMvG838N+lEg73hVS5uo77bHm/XmABissPd78=);strokeColor=none;spacingTop=-3;spacingBottom=-3;spacingLeft=-3;spacingRight=-3;points=[];labelBackgroundColor=none;rounded=0;html=1;whiteSpace=wrap;" parent="IFgAx-EEVJAiXfjY6ULy-47" vertex="1">
          <mxGeometry x="2" y="2" width="46" height="55" as="geometry" />
        </mxCell>
        <mxCell id="IFgAx-EEVJAiXfjY6ULy-50" style="vsdxID=10122;fillColor=#ffbd02;gradientColor=none;shape=stencil(vVZdd4IwDP01PJrTpt/Pzv0PzkTljImnsun+/eqKYEBwm443aJrm3ts0SSLm+026yxJk+8qXr9khX1abRDwliPl2k/m8Cl+JWCRivip9tvbl+3YZ/3fpaefp6638OJ1wjH5OgnMnL2SfcUUasOZ75Tk6FPn2wsFaMOo+B8HA6kuH1L8Eq68dJActooM/e3AwNcp6kzGgkZzqgJ23zNJjvp/5skqrvNxGM4u2IvXrbBYCzlZFuiam/SHLdr3lqxCFgQ5CtCApQgzKSoLQgNL/h5CqjtiN3ugzJDozPdGFJpQ4BztwkxNQ6kW/kXgKlBnfTyVQgN20a97GkYCuzSoIpKZiT0M7PXqbCjj2qHBCRQHj5EjO2FRcQtEx5mrwv7JpwLf64HSJyXp54dRddJwCQatbm7vT3M+tpkC7iGGgf/M0QzHSQ/x+6HCjiYT6h5aqzA0wJDILBa6Th/bRMvNhjCGYch2MEihEjU0Rbmlo+38Qqe5aAhMDCl3vjNhkbtMaZQu4PlWDpKUcOeBjS+kYqZHwg8kkOxelu70hvAHR6476sSPJCKnbTzB8tFPgKi+KOERe2rtTY1iKE6dYfAE=);strokeColor=none;spacingTop=-3;spacingBottom=-3;spacingLeft=-3;spacingRight=-3;points=[];labelBackgroundColor=none;rounded=0;html=1;whiteSpace=wrap;" parent="IFgAx-EEVJAiXfjY6ULy-47" vertex="1">
          <mxGeometry x="13" y="11" width="22" height="29" as="geometry" />
        </mxCell>
        <mxCell id="IFgAx-EEVJAiXfjY6ULy-51" style="vsdxID=10123;fillColor=#ffe452;gradientColor=none;shape=stencil(vVPLEoIwDPyaHumUhudZ8T86WqBjpUyor7+3WFSqI968JZtNdnaSEFgNregl4WywaPbyrHa2JbAmnKuulaisiwhUBFa1QdmgOXY7n/diZI7RwZzGCRffl1LIxibOrh5g92zjuVp1M26Z0bT4Tha4dRV8Duap5+JEzmmWe2SixIwF02JawESIxEUNERorrDLdXIxpgY2MnFhUa9EEpeEsZT+D4+9eYlomoThbNAMfZgoemAmtlAlN/2UlVC4owOJWkh9bSWhehkt+TPyDl+VzdMHrjmultX+Def397h3kfwaqGw==);strokeColor=none;spacingTop=-3;spacingBottom=-3;spacingLeft=-3;spacingRight=-3;points=[];labelBackgroundColor=none;rounded=0;html=1;whiteSpace=wrap;" parent="IFgAx-EEVJAiXfjY6ULy-47" vertex="1">
          <mxGeometry x="13" y="25" width="22" height="15" as="geometry" />
        </mxCell>
        <mxCell id="IFgAx-EEVJAiXfjY6ULy-52" style="vsdxID=10124;fillColor=#ffd400;gradientColor=none;fillOpacity=50;strokeOpacity=50;shape=stencil(vVPRDoIwDPyaPbLMbSg8K/7HogMWJyNlCv69m4MISHgx4a29u7a5tUPs2JSiloiSxoK5yVZdbYnYCVGqqlKCsi5CLEPsmBuQBZhHdQ15LbzSR3fz9B26UJdyTHe+ipJXQMgnOwexVtVIzDBf0Qq4OAZ6bYw95bXQiw94nwakG1cPvXY44T0diU41ERgrrDLVRKwFFDJyo6Jci2JCNa2U9Q+8aCRNMDlMp5MVLxzHfOplP/cy1A/93LvyZCs78+HOHftrM6nTsIVNb7Ga9YN0wfeUc6V1+Aljfn76DgrfhmVv);strokeColor=none;spacingTop=-3;spacingBottom=-3;spacingLeft=-3;spacingRight=-3;points=[];labelBackgroundColor=none;rounded=0;html=1;whiteSpace=wrap;" parent="IFgAx-EEVJAiXfjY6ULy-47" vertex="1">
          <mxGeometry x="14" y="25" width="22" height="15" as="geometry" />
        </mxCell>
        <UserObject label="" tags="Background" id="IFgAx-EEVJAiXfjY6ULy-53">
          <mxCell style="vsdxID=10125;fillColor=none;gradientColor=none;points=[];labelBackgroundColor=none;rounded=0;strokeColor=none;html=1;whiteSpace=wrap;" parent="1" vertex="1">
            <mxGeometry x="57" y="548" width="62" height="62" as="geometry" />
          </mxCell>
        </UserObject>
        <mxCell id="IFgAx-EEVJAiXfjY6ULy-54" style="vsdxID=10126;fillColor=#5e9624;gradientColor=none;shape=stencil(vVPLcoMwDPwaH9HIlnmd0+Q/PIkBTylmDGno38fEZhonaXvrTVqttNJIYrSbOjVqJnCanX3XF3OaO0ZvTAgzdNqZ2VuM9ox2jXW6dfY8nII/qpW5Wh/2c62whLyaAxZrlsCvgHDEm38IdOWOPuYivYIqkN3GliAjtKT5W70qhzIqLJlazJQ5O6vZ2CHEI7tXrtWZV8uaXrVJaLpoPT7Bsb/eDPoXcYKC7unHswvj8zh/AXKbP0JUQk6xYRHLIOQyskTS20LBzRFQRAa9aPNRl9eQ81QXU00CShWJgyxTVUwV/bRl/fPyakD5tL1qK7ktGIm9Ood/WN6ft+iN7ztuTN+HN7iPP969h8LP0P4K);strokeColor=none;spacingTop=-3;spacingBottom=-3;spacingLeft=-3;spacingRight=-3;points=[];labelBackgroundColor=none;rounded=0;html=1;whiteSpace=wrap;" parent="IFgAx-EEVJAiXfjY6ULy-53" vertex="1">
          <mxGeometry y="26" width="54" height="32" as="geometry" />
        </mxCell>
        <mxCell id="IFgAx-EEVJAiXfjY6ULy-55" style="vsdxID=10127;fillColor=#FFFFFF;gradientColor=none;shape=stencil(vVLLDsIgEPwajiUU7Otc9T+I0paIpVlQ699LBbU0sfHkbXdmB3ZgEKtNxweBKDEW9Enc5NF2iG0RpbLvBEjrKsR2iNWNBtGCvvRH3w98mpyqs75OJ4xel6WYFZOKkrtHUodUT2TvBRwOjoUgqBguqRdAUBQE5wEKQyQ6MXRjwkdpEtCWW6n7iFMcWpG4m5JG8TaizE2IYQan892U7GdmNhXOYy+EfJ9+ke81cZmt+M5xvln4prjIIt9rr/kH/z98pis+UWikUj5Jc34ZHQf52LHdAw==);strokeColor=none;spacingTop=-3;spacingBottom=-3;spacingLeft=-3;spacingRight=-3;points=[];labelBackgroundColor=none;rounded=0;html=1;whiteSpace=wrap;" parent="IFgAx-EEVJAiXfjY6ULy-53" vertex="1">
          <mxGeometry x="19" y="28" width="16" height="21" as="geometry" />
        </mxCell>
        <mxCell id="IFgAx-EEVJAiXfjY6ULy-56" style="vsdxID=10128;fillColor=#5e9624;gradientColor=none;shape=stencil(vVHLDsIgEPwajiQI6RfU+h8bu22JCGRB2/69kG1iazx58DazM/vIjjBtmiCi0CplCjecbZ8nYc5Ca+snJJsLEqYTph0C4Ujh4XvmEaqzont41gkL96naodXKrGF6YSfQtUi0OXXDVlqPfJNP6usotUhYbJIUMmQb/GGrAxpRljVycDBuc1hKM2LclX8/7H9nFfB+82Cd45T2+mcspcSRmu4F);strokeColor=none;spacingTop=-3;spacingBottom=-3;spacingLeft=-3;spacingRight=-3;points=[];labelBackgroundColor=none;rounded=0;html=1;whiteSpace=wrap;" parent="IFgAx-EEVJAiXfjY6ULy-53" vertex="1">
          <mxGeometry x="11" width="30" height="30" as="geometry" />
        </mxCell>
        <mxCell id="IFgAx-EEVJAiXfjY6ULy-57" style="vsdxID=10129;fillColor=#32bedd;gradientColor=none;shape=stencil(lZFrCsMgEIRPs3+DdRMvkMc9AtG41Gow9nX7KktpU2hJ/82s3yzLCNiudlw0SLGmGI76SlOygB1ISd7qSCkrwB6wNSHqOYazn9gvYyGLOoVL2XDj3EGIkpHizp7dwKgj/wNVqmrUd3wLP8M7UMSqrvef8cfFGzSLVymGnONO398/S8wj/gDsHw==);strokeColor=none;spacingTop=-3;spacingBottom=-3;spacingLeft=-3;spacingRight=-3;points=[];labelBackgroundColor=none;rounded=0;html=1;whiteSpace=wrap;" parent="IFgAx-EEVJAiXfjY6ULy-53" vertex="1">
          <mxGeometry x="48" y="38" width="13" height="23" as="geometry" />
        </mxCell>
        <mxCell id="IFgAx-EEVJAiXfjY6ULy-58" style="vsdxID=10130;fillColor=#9cebff;gradientColor=none;shape=stencil(UzV2Ls5ILEhVNTIoLinKz04tz0wpyVA1dlE1MsrMy0gtyiwBslSNXVWNndPyi1LTi/JL81Ig/IJEkEoQKze/DGRCBUSfoYEBSI+RQSWEb2KpZ2kEFnGDKM/JzENSboqqGqYbq1pKDMZjLIkuJqgcyEAETlpmTg4kbJHl0QMTKASJCGNXAA==);strokeColor=none;spacingTop=-3;spacingBottom=-3;spacingLeft=-3;spacingRight=-3;points=[];labelBackgroundColor=none;rounded=0;html=1;whiteSpace=wrap;" parent="IFgAx-EEVJAiXfjY6ULy-53" vertex="1">
          <mxGeometry x="35" y="31" width="26" height="15" as="geometry" />
        </mxCell>
        <mxCell id="IFgAx-EEVJAiXfjY6ULy-59" style="vsdxID=10131;fillColor=#50e6ff;gradientColor=none;shape=stencil(UzV2Ls5ILEhVNTIoLinKz04tz0wpyVA1dlE1MsrMy0gtyiwBslSNXVWNndPyi1LTi/JL81Ig/IJEkEoQKze/DGRCBUSfoYEBSI+RQSWEb2ysZ2ICFnGDKM/JzMOjHMbHqhhVqZmZnqkZsYrxmEqhizGUAxmIwEnLzMmBhC2yPHpgAoUgEWHsCgA=);strokeColor=none;spacingTop=-3;spacingBottom=-3;spacingLeft=-3;spacingRight=-3;points=[];labelBackgroundColor=none;rounded=0;html=1;whiteSpace=wrap;" parent="IFgAx-EEVJAiXfjY6ULy-53" vertex="1">
          <mxGeometry x="35" y="38" width="13" height="23" as="geometry" />
        </mxCell>
        <mxCell id="IFgAx-EEVJAiXfjY6ULy-60" style="vsdxID=10132;fillColor=#9cebff;gradientColor=none;shape=stencil(UzV2Ls5ILEhVNTIoLinKz04tz0wpyVA1dlE1MsrMy0gtyiwBslSNXVWNndPyi1LTi/JL81Ig/IJEkEoQKze/DGRCBUSfAUiHkUElhGdiqWduChZxgyjOycxDUmxogKrcgHilMD5WxSQ5goBiIAPh17TMnBxIUCHLo4cNUAgSrsauAA==);strokeColor=none;spacingTop=-3;spacingBottom=-3;spacingLeft=-3;spacingRight=-3;points=[];labelBackgroundColor=none;rounded=0;html=1;whiteSpace=wrap;" parent="IFgAx-EEVJAiXfjY6ULy-53" vertex="1">
          <mxGeometry x="35" y="46" width="13" height="15" as="geometry" />
        </mxCell>
        <mxCell id="IFgAx-EEVJAiXfjY6ULy-61" style="vsdxID=10133;fillColor=#50e6ff;gradientColor=none;shape=stencil(UzV2Ls5ILEhVNTIoLinKz04tz0wpyVA1dlE1MsrMy0gtyiwBslSNXVWNndPyi1LTi/JL81Ig/IJEkEoQKze/DGRCBUSfoYEBSI+RQSWEb2KpZ24KFnGDKM/JzENSjqrYgFiFMFuwKiXRCQSVAxkI36Zl5uRAAgtZHj10gEKQkDV2BQA=);strokeColor=none;spacingTop=-3;spacingBottom=-3;spacingLeft=-3;spacingRight=-3;points=[];labelBackgroundColor=none;rounded=0;html=1;whiteSpace=wrap;" parent="IFgAx-EEVJAiXfjY6ULy-53" vertex="1">
          <mxGeometry x="48" y="46" width="13" height="15" as="geometry" />
        </mxCell>
        <UserObject label="" tags="Background" id="IFgAx-EEVJAiXfjY6ULy-62">
          <mxCell style="vsdxID=10134;fillColor=none;gradientColor=none;points=[];labelBackgroundColor=none;rounded=0;strokeColor=none;html=1;whiteSpace=wrap;" parent="1" vertex="1">
            <mxGeometry x="448" y="547" width="59" height="60" as="geometry" />
          </mxCell>
        </UserObject>
        <mxCell id="IFgAx-EEVJAiXfjY6ULy-63" style="vsdxID=10135;rotation=315;fillColor=#198ab3;gradientColor=none;shape=stencil(vVPLDoMgEPwajhqENtaztf9BKiopFbPQqn9fLDa+aprUxNsyO+swi4NorAtWcUSwNqBuvBapKRA9I0JEWXAQxlaIJojGmQKeg3qUqTtXrGN21V09uy80bg53EwS37nQkfhS8kYsjM7jaLvTkAPuh40M/cAh9HDlowWk/QK/ReKwR2gNlmBGqnOhLBjn3rJqXSZZPWrrmvFrA/f2kKEdmTpFPv2pvcLO2oB3szMWH6/3tZ7Gh3d5m8V9sfJm11exg5UdmbDGkLRNSurCO+/N0WsglmyYv);strokeColor=none;spacingTop=-3;spacingBottom=-3;spacingLeft=-3;spacingRight=-3;points=[];labelBackgroundColor=none;rounded=0;html=1;whiteSpace=wrap;" parent="IFgAx-EEVJAiXfjY6ULy-62" vertex="1">
          <mxGeometry x="-3" y="49" width="20" height="4" as="geometry" />
        </mxCell>
        <mxCell id="IFgAx-EEVJAiXfjY6ULy-64" style="vsdxID=10136;fillColor=#5ea0ef;gradientColor=none;shape=stencil(xVrbcts4DP0aP4bD++W52/6Hp3USz3rjjOJu079faCWRBiBR6sRm3hKKMKkD4OAQ1M58eXvevx52Wr5duvPfh1/HH5fnnflrp/Xx5fnQHS/w18583Zkvj+fu8NSdf778GP5/3fcz+7/+Of/b/8L7YJeisL2Rlr+HASNF+n/g2zB9332Hh9043Rnh1DC/Gw2cFnEYmX5SC5XQb6okohvnPOzfj28P3fmyvxzPL8NzOTw77bunwwMs+PB42j+hR2+/DodXNjy/RSUC2aESUqEt9hsKaItJ+Hi/HZ6OL4dNqy/Nxz5SUshYRUB5AoEUFnsJ5ijs+CC0b+Uk44S1eIvGihTQFiXan9XC25vuT1UhTJpFkTYYQie8Q3uMgGG7MKosP28QhPXYIOJk/+D8lN9+imspjP2QAXaLDcJgr1gvPI4aHabkyD/q7hrZ+J1g+URXDxWnQO4bPN+PA7PTgZ5toPNj5fcN0CFO9BRExSfGCOno/OgrBjbnxWQQhQ4VA8foL4pQiSvjRXB/ZJCEIgZAofqGBlaJSDm5EhQuCFWdTtgx5oDtCjtPGIyTvBFWLaDSIM5ryy9Rqk2EUqWIuDBHRV0dkwjNylJP+1TeAO1rtMdeMmFahKSMty1NFeBXFRsWeBHoBNOhhgyvMEzwhJDYfMLJUBMiIeUoDC6VvkzKkqeZIrRWKCIJLehYrIcAJ+cX3vsuggOjvsFN2K/O5t2NBsCSFTfB40TSD4Y8d5P+PBD4O63E6joIa6BBHNaKW1C0MDADDHOfPYRBghMY5WCIRABZoz8P47z6Vp9QBNYwhkOjr6zA4GDzGcSRIRxwNnO/BVmOFy1A1mFh+Y0GAIL5o8hnqGG36EhP5XCgkrVIllnXTTj7RCIZSo9jweGb8QVErmfZ6SuocQM4P9T8Amqe6Dxm8P1nN+Csskma1hiHrMta6V1nd0w9id8616Qs3wx3msle05U33OBmHBccEj8dzbdiXudoo0VcqilLlSqQwIMhg095c9v2E8afEHgUNJJ8hlZ3OLyrygIbDIhylRnlK3U9HTqKK+jh8daNuZWeCvFrL67xFrUTLFjuKBRZR8Wl+dXnhaXPXcOrfoT0+I3mXHnjLtHHIgnHqlK0f7JCqrBCUnUDUlmAkUisQr2WpI2jqBS1UGzuGAqMx682MPH4VQtS51mO8rgtasTwWSYHSk14QhgRGqfzSXIlKopghHS9Qz6VFUTDHYs169150vK12OWzkdcsUTbEPU4U5qJeslW6Urp0EpYMSJ6U/mvOE6gzWILx7APhFpp1IzhqZfn5MDBTu/L6ME6OoTPIumbifd2vhDBZ1egd55YXgBrnVd2AYJZ4AyNmRinFPWGpmmRuurRpshBS75ss7MaEQzWeWlqk+LqnmDgm2jWZqUG5qF0xCL10xY1bQsJlC22EK3mhlVjdgMAaZEAIteM/P0MyA0aLjuhIoEWMMT+3QRK3E138fFCW32iwgtoGmEm1KjfAhR4qPK1KQ3JCGYYU1rbO5uwt0RGbHcP48n1s1Kg9FR22YEBuYgK7EIAhi5l3FtqG9WrVszgSQqQJFx35noA06NYNWI2nt/sgnSOOnZkrAVnm3F+OxlwLihzNnZuluxAIF31bx1a0VfQz4Y1vVlkN1hR3k4ml5s1mJXhDLJEPlGQ+TRWiq+U4rGB83QCjFmNuWU6oxauaPI7IfA1ZGF01+6qg/4hgafmlUJDkpa6ycgO2DWJhg2vJXSZzQt+NrUgFcK3RzLWkK8YDpr+cbJblgMLS6vOedUz+gLMTFtqJKd2CVIvbzHVHwR/lm8TH4+k0fNJ4/Zx+wwhDw/eP5ut/);strokeColor=none;spacingTop=-3;spacingBottom=-3;spacingLeft=-3;spacingRight=-3;points=[];labelBackgroundColor=none;rounded=0;html=1;whiteSpace=wrap;" parent="IFgAx-EEVJAiXfjY6ULy-62" vertex="1">
          <mxGeometry x="16" width="43" height="43" as="geometry" />
        </mxCell>
        <mxCell id="IFgAx-EEVJAiXfjY6ULy-65" style="vsdxID=10137;fillColor=#50e6ff;gradientColor=none;shape=stencil(vVHLDsIgEPwajiQI6RfU+h8bu22JCGRB2/69kG1iazx58DazM/vIjjBtmiCi0CplCjecbZ8nYc5Ca+snJJsLEqYTph0C4Ujh4XvmEaqzont41gkL96naodXKrGF6YSfQtUi0OXXDVlqPfJNP6usotUhYbJIUMmQb/GGrAxpRljVycDBuc1hKM2LclX8/7H9nFfB+82Cd45T2+mcspcSRmu4F);strokeColor=none;spacingTop=-3;spacingBottom=-3;spacingLeft=-3;spacingRight=-3;points=[];labelBackgroundColor=none;rounded=0;html=1;whiteSpace=wrap;" parent="IFgAx-EEVJAiXfjY6ULy-62" vertex="1">
          <mxGeometry x="6" y="22" width="28" height="28" as="geometry" />
        </mxCell>
        <mxCell id="IFgAx-EEVJAiXfjY6ULy-66" style="vsdxID=10138;fillColor=#FFFFFF;gradientColor=none;shape=stencil(vVHLDsIgEPwajiQI6RfU+h8bu22JCGRB2/69kG1iazx58DazM/vIjjBtmiCi0CplCjecbZ8nYc5Ca+snJJsLEqYTph0C4Ujh4XvmEaqzont41gkL96naodXKrGF6YSfQtUi0OXXDVlqPfJNP6usotUhYbJIUMmQb/GGrAxpRljVycDBuc1hKM2LclX8/7H9nFfB+82Cd45T2+mcspcSRmu4F);strokeColor=none;spacingTop=-3;spacingBottom=-3;spacingLeft=-3;spacingRight=-3;points=[];labelBackgroundColor=none;rounded=0;html=1;whiteSpace=wrap;" parent="IFgAx-EEVJAiXfjY6ULy-62" vertex="1">
          <mxGeometry x="9" y="25" width="22" height="22" as="geometry" />
        </mxCell>
        <mxCell id="IFgAx-EEVJAiXfjY6ULy-67" style="vsdxID=10139;fillColor=#76bc2d;gradientColor=none;shape=stencil(vVRBcoMwDHwNRzTGMtic0/QfnsaApxQYQxr6+5oxTKMQ0556E9KuVpaEEjyNjR5Mwtk4uf7d3OxlahJ8STi3XWOcnbyV4DnBU9U7U7v+2l3C96AX5GJ99J9LhjnwOALjC4uzr+ARavO8BkJruzsCSoLOGItj8wy4IHBEEHF8wUHR9DIDPCBICUJRgQzUQfVbuVG4dm8+6rYHFMDX/G5lqBJUEVwrqJRQ0p4okOsz5lTPdkxdP+nJ9l2IryW02tUm9YJp1eqahMabMcPO/bwFCJmIyD9vMoKkBCGAHRBECbwghINyMAea3MspjOP3+/dL+X47HwQ4FHkcz47BdN6+E2VO5+03UCoyb5+C7mgORflf4844yDwi/8cG735wb/ych8q2bbgu9/HHc+Jd4RTh+Rs=);strokeColor=none;spacingTop=-3;spacingBottom=-3;spacingLeft=-3;spacingRight=-3;points=[];labelBackgroundColor=none;rounded=0;html=1;whiteSpace=wrap;" parent="IFgAx-EEVJAiXfjY6ULy-62" vertex="1">
          <mxGeometry x="10" y="30" width="20" height="12" as="geometry" />
        </mxCell>
        <UserObject label="" tags="Background" id="IFgAx-EEVJAiXfjY6ULy-68">
          <mxCell style="vsdxID=10140;fillColor=none;gradientColor=none;strokeColor=none;spacingTop=-3;spacingBottom=-3;spacingLeft=-3;spacingRight=-3;points=[];labelBackgroundColor=none;rounded=0;html=1;whiteSpace=wrap;" parent="1" vertex="1">
            <mxGeometry x="257" y="549" width="59" height="62" as="geometry" />
          </mxCell>
        </UserObject>
        <mxCell id="IFgAx-EEVJAiXfjY6ULy-69" style="vsdxID=10141;fillColor=#198ab3;gradientColor=none;shape=stencil(vVHLDsIgEPwajiQI6RfU+h8bu22JCGRB2/69kG1iazx58DazM/vIjjBtmiCi0CplCjecbZ8nYc5Ca+snJJsLEqYTph0C4Ujh4XvmEaqzont41gkL96naodXKrGF6YSfQtUi0OXXDVlqPfJNP6usotUhYbJIUMmQb/GGrAxpRljVycDBuc1hKM2LclX8/7H9nFfB+82Cd45T2+mcspcSRmu4F);strokeColor=none;spacingTop=-3;spacingBottom=-3;spacingLeft=-3;spacingRight=-3;points=[];labelBackgroundColor=none;rounded=0;html=1;whiteSpace=wrap;" parent="IFgAx-EEVJAiXfjY6ULy-68" vertex="1">
          <mxGeometry x="17" y="21" width="19" height="19" as="geometry" />
        </mxCell>
        <mxCell id="IFgAx-EEVJAiXfjY6ULy-70" style="vsdxID=10142;fillColor=#32bedd;gradientColor=none;shape=stencil(vVHLDsIgEPwajiQI6RfU+h8bu22JCGRB2/69kG1iazx58DazM/vIjjBtmiCi0CplCjecbZ8nYc5Ca+snJJsLEqYTph0C4Ujh4XvmEaqzont41gkL96naodXKrGF6YSfQtUi0OXXDVlqPfJNP6usotUhYbJIUMmQb/GGrAxpRljVycDBuc1hKM2LclX8/7H9nFfB+82Cd45T2+mcspcSRmu4F);strokeColor=none;spacingTop=-3;spacingBottom=-3;spacingLeft=-3;spacingRight=-3;points=[];labelBackgroundColor=none;rounded=0;html=1;whiteSpace=wrap;" parent="IFgAx-EEVJAiXfjY6ULy-68" vertex="1">
          <mxGeometry x="49" y="11" width="9" height="9" as="geometry" />
        </mxCell>
        <mxCell id="IFgAx-EEVJAiXfjY6ULy-71" style="vsdxID=10143;fillColor=#32bedd;gradientColor=none;shape=stencil(vVHLDsIgEPwajiQI6RfU+h8bu22JCGRB2/69kG1iazx58DazM/vIjjBtmiCi0CplCjecbZ8nYc5Ca+snJJsLEqYTph0C4Ujh4XvmEaqzont41gkL96naodXKrGF6YSfQtUi0OXXDVlqPfJNP6usotUhYbJIUMmQb/GGrAxpRljVycDBuc1hKM2LclX8/7H9nFfB+82Cd45T2+mcspcSRmu4F);strokeColor=none;spacingTop=-3;spacingBottom=-3;spacingLeft=-3;spacingRight=-3;points=[];labelBackgroundColor=none;rounded=0;html=1;whiteSpace=wrap;" parent="IFgAx-EEVJAiXfjY6ULy-68" vertex="1">
          <mxGeometry x="49" y="26" width="9" height="9" as="geometry" />
        </mxCell>
        <mxCell id="IFgAx-EEVJAiXfjY6ULy-72" style="vsdxID=10144;fillColor=#32bedd;gradientColor=none;shape=stencil(vVHLDsIgEPwajiQI6RfU+h8bu22JCGRB2/69kG1iazx58DazM/vIjjBtmiCi0CplCjecbZ8nYc5Ca+snJJsLEqYTph0C4Ujh4XvmEaqzont41gkL96naodXKrGF6YSfQtUi0OXXDVlqPfJNP6usotUhYbJIUMmQb/GGrAxpRljVycDBuc1hKM2LclX8/7H9nFfB+82Cd45T2+mcspcSRmu4F);strokeColor=none;spacingTop=-3;spacingBottom=-3;spacingLeft=-3;spacingRight=-3;points=[];labelBackgroundColor=none;rounded=0;html=1;whiteSpace=wrap;" parent="IFgAx-EEVJAiXfjY6ULy-68" vertex="1">
          <mxGeometry x="49" y="42" width="9" height="9" as="geometry" />
        </mxCell>
        <mxCell id="IFgAx-EEVJAiXfjY6ULy-73" style="vsdxID=10145;fillColor=#50e6ff;gradientColor=none;shape=stencil(vVHLDsIgEPwajiQI6RfU+h8bu22JCGRB2/69kG1iazx58DazM/vIjjBtmiCi0CplCjecbZ8nYc5Ca+snJJsLEqYTph0C4Ujh4XvmEaqzont41gkL96naodXKrGF6YSfQtUi0OXXDVlqPfJNP6usotUhYbJIUMmQb/GGrAxpRljVycDBuc1hKM2LclX8/7H9nFfB+82Cd45T2+mcspcSRmu4F);strokeColor=none;spacingTop=-3;spacingBottom=-3;spacingLeft=-3;spacingRight=-3;points=[];labelBackgroundColor=none;rounded=0;html=1;whiteSpace=wrap;" parent="IFgAx-EEVJAiXfjY6ULy-68" vertex="1">
          <mxGeometry x="39" y="19" width="9" height="9" as="geometry" />
        </mxCell>
        <mxCell id="IFgAx-EEVJAiXfjY6ULy-74" style="vsdxID=10146;fillColor=#50e6ff;gradientColor=none;shape=stencil(vVHLDsIgEPwajiQI6RfU+h8bu22JCGRB2/69kG1iazx58DazM/vIjjBtmiCi0CplCjecbZ8nYc5Ca+snJJsLEqYTph0C4Ujh4XvmEaqzont41gkL96naodXKrGF6YSfQtUi0OXXDVlqPfJNP6usotUhYbJIUMmQb/GGrAxpRljVycDBuc1hKM2LclX8/7H9nFfB+82Cd45T2+mcspcSRmu4F);strokeColor=none;spacingTop=-3;spacingBottom=-3;spacingLeft=-3;spacingRight=-3;points=[];labelBackgroundColor=none;rounded=0;html=1;whiteSpace=wrap;" parent="IFgAx-EEVJAiXfjY6ULy-68" vertex="1">
          <mxGeometry x="39" y="34" width="9" height="9" as="geometry" />
        </mxCell>
        <mxCell id="IFgAx-EEVJAiXfjY6ULy-75" style="vsdxID=10147;fillColor=#949494;gradientColor=none;shape=stencil(tVTbboMwDP0aHrESm0t47rr/iNoA0RigQFf29wtLUAmIbdK2t8Q+x5fjxBGdhlr2KkI2jKZ7UXd9HeuIniJE3dbK6NGeIjpHdCo7oyrT3dqru/dyRs6n1+5tjjA5HufAcWYhe/cWxj7vzw4uzcX6zAIHUTi08fAEMuEsj4iCgoiFgCTxmFhOeohNN8pRd63zu3yskaZSsc0Xl42sAtdwV6pfmfm6wka3q4bSHPIwPSEgrQmXm3EScE8RQJmn8C2HTei7yIEvKG8SGaRevIn2KNqifi5pEUrqR7J0JBAS/FNB2bGg2+SZfTH0q3aKAlgaxLRDY/R/DW0Hvi6A7yvA/bPAINkybEsSPBw2g1wca8lA5OEkOWTJF/gQTIDH2G9/sj08tkCpm8YtkbV/uzWsyW0cOn8A);strokeColor=none;spacingTop=-3;spacingBottom=-3;spacingLeft=-3;spacingRight=-3;points=[];labelBackgroundColor=none;rounded=0;html=1;whiteSpace=wrap;" parent="IFgAx-EEVJAiXfjY6ULy-68" vertex="1">
          <mxGeometry width="46" height="18" as="geometry" />
        </mxCell>
        <mxCell id="IFgAx-EEVJAiXfjY6ULy-76" style="vsdxID=10148;fillColor=#949494;gradientColor=none;shape=stencil(vZTBcoMgEIafhqM7wAaRc5q+B5OgMrXiIG3s2weL04gzpod2clv//XeXD10JHsdWD4ZwOgbv3szVXkJL8IVwbvvWeBtiRPBE8Fg7bxrvPvpLeh707Jyjd/c5d5hSneIgca7i9CspFLD8Fl6Tv7P9ys+BZe4Sgcq1XftzzPrFXv5090tBBVQlZbHQnX50KvRkx8K7oIN1febutG9MEWcVdaebLDVejRlWMtuHyUcrBRXfR0GQKkc5gCgzlO3l3Dv+Fwzdh1ESZD4eD8AeAMXjb4AECJYBMZpfEVcg8FlA2+ECWPUnmgff+jPez6+bFoP7mta269KWr/PbtY5S+iXg6QY=);strokeColor=none;spacingTop=-3;spacingBottom=-3;spacingLeft=-3;spacingRight=-3;points=[];labelBackgroundColor=none;rounded=0;html=1;whiteSpace=wrap;" parent="IFgAx-EEVJAiXfjY6ULy-68" vertex="1">
          <mxGeometry x="27" y="46" width="19" height="16" as="geometry" />
        </mxCell>
        <mxCell id="IFgAx-EEVJAiXfjY6ULy-77" style="vsdxID=10149;fillColor=#B3B3B3;gradientColor=none;shape=stencil(vZTNcoQgDMefhqMZCKJw3m7fg+miMrXqoO3aty8W2xV3dHvoeAv5+IefxBB+6ivdGYK0H1z7aq72MlSEPxFE21TG2cFbhJ8JPxWtM6Vr35tLOHd6ypyst/ZjUhhDHaN0qkH6Gc4yh4x/e55DunYvPurm9BQohnw3FyBwETxzipKA2YYmHRM92j5x7aAH2zYhPt+g1q40ie+XFLUuo1B/NaZbuNnyhrVtFkBIATFqn1HIxTYSghIxEoOcR0hMQsYiTaGAyaOQ7tv7Dyq3iTiIFREClQ+IMsjTo4AoxL3pHotco/w874YY+x3RfwKhfwfJBMh0Dwb5etSkih8GhIwlc0jVUTz+3+Uqaq8UqH0idke0GrXVhrkpHgD0cL1547YaC1vXYbMu4+tV6l1hDfPzFw==);strokeColor=none;spacingTop=-3;spacingBottom=-3;spacingLeft=-3;spacingRight=-3;points=[];labelBackgroundColor=none;rounded=0;html=1;whiteSpace=wrap;" parent="IFgAx-EEVJAiXfjY6ULy-68" vertex="1">
          <mxGeometry y="15" width="27" height="47" as="geometry" />
        </mxCell>
        <UserObject label="" tags="Background" id="IFgAx-EEVJAiXfjY6ULy-78">
          <mxCell style="vsdxID=1994;fillColor=none;gradientColor=none;strokeColor=none;spacingTop=-3;spacingBottom=-3;spacingLeft=-3;spacingRight=-3;points=[];labelBackgroundColor=none;rounded=0;html=1;whiteSpace=wrap;" parent="1" vertex="1">
            <mxGeometry x="457" y="251" width="55" height="57" as="geometry" />
          </mxCell>
        </UserObject>
        <mxCell id="IFgAx-EEVJAiXfjY6ULy-79" style="vsdxID=1995;fillColor=#5ea0ef;gradientColor=none;shape=stencil(tVPbboMwDP2aPBKZBFD7zNr/iNYAUVOCTFrY3y/MTINptPSyN1+OL8fWYTJvK9VoJqD16I66MwdfMfnGhDB1pdH4YDG5YzIvHOoS3bk+kN+oATlYJ3cZOvRUl8Q8EUOVgA+KwJe3J7DC95DBEZxueLohMI7oVPIso9AIigFm/aaISPWmjdB55Y2rp/PAKix1FOZFhVXl2IpSbad1Mwk/u+ES57v3gxX7WVOvP/et33zf9m/uwNPtnHuScZnMuG8Fh/if/xMv8782/nFSy4d61UuvULr5pWD8qK8w1pJ4p/nfag0hUrrcfQI=);strokeColor=none;spacingTop=-3;spacingBottom=-3;spacingLeft=-3;spacingRight=-3;points=[];labelBackgroundColor=none;rounded=0;html=1;whiteSpace=wrap;" parent="IFgAx-EEVJAiXfjY6ULy-78" vertex="1">
          <mxGeometry x="4" width="50" height="55" as="geometry" />
        </mxCell>
        <mxCell id="IFgAx-EEVJAiXfjY6ULy-80" style="vsdxID=1996;fillColor=#FFFFFF;gradientColor=none;shape=stencil(vVHLDsIgEPwajiQI6RfU+h8bu22JCGRB2/69kG1iazx58DazM/vIjjBtmiCi0CplCjecbZ8nYc5Ca+snJJsLEqYTph0C4Ujh4XvmEaqzont41gkL96naodXKrGF6YSfQtUi0OXXDVlqPfJNP6usotUhYbJIUMmQb/GGrAxpRljVycDBuc1hKM2LclX8/7H9nFfB+82Cd45T2+mcspcSRmu4F);strokeColor=none;spacingTop=-3;spacingBottom=-3;spacingLeft=-3;spacingRight=-3;points=[];labelBackgroundColor=none;rounded=0;html=1;whiteSpace=wrap;" parent="IFgAx-EEVJAiXfjY6ULy-78" vertex="1">
          <mxGeometry y="4" width="51" height="51" as="geometry" />
        </mxCell>
        <mxCell id="IFgAx-EEVJAiXfjY6ULy-81" style="vsdxID=1997;fillColor=none;gradientColor=none;strokeColor=none;spacingTop=-3;spacingBottom=-3;spacingLeft=-3;spacingRight=-3;points=[];labelBackgroundColor=none;rounded=0;html=1;whiteSpace=wrap;" parent="IFgAx-EEVJAiXfjY6ULy-78" vertex="1">
          <mxGeometry x="8" y="1" width="34" height="55" as="geometry" />
        </mxCell>
        <mxCell id="IFgAx-EEVJAiXfjY6ULy-82" style="vsdxID=1998;fillColor=#ffd70f;gradientColor=none;shape=stencil(xVfbcuMgDP0aP0aDENfnbvsfnq2TeOqNM47bZv9+yZJLBTZtdzLeN1ugI86REFDRw2Fb75tKisM49C/Ne/s8biv6UUnZ7rbN0I7hq6LHih7W/dBshv519xz/9/Vp5unrV/92QjhGP6/A6JOXFL+jhTyQ/Wt5ig718DOMDmcHdKBcdBjOHoigKZpmUSUBni3HVX1sD6uhH+ux7XdxXMSxrh42zSpEXK27esOGDu9Ns8/M5zV27a5I6hZ+0sFI8JarAERlETATQXkmAlkQNA26gAaF6JPzNdAnkuUS2LwOJJMgA70V1xISIBieVW0AC2lV4DynRCA0Y0QEksuqHZC5KyUsUMrCO3cp3UlKBqRNKXnklDQIZJgewS5WqMpeNb6E9yBVKUuYZEmC4ZR02M9zmAtQKoWf7j+hYaUZ8O5+821oTknZWLA4r7EErZPNDZq3twlMDdotpbExoLgGTl6OoRlK1qeUrGKUJjAFSLwrpcLmzhW1FrCcpbQFX+piHlJdj7r/kaSwIC9LjFzGyPK6yzGNh8UacC5oWI8unJP/kqOwvZW8K6NSjtJeYgQI84354QDUBcW+cMPkV1IV0un5LgR08wqjAMUVNtlVLLRfxyBRXe8G35UYv1A0+QoxXSK/VxRIL1DVn0sePm5PiHXbdfEF8nE8fXIEU3yu0OMf);strokeColor=none;spacingTop=-3;spacingBottom=-3;spacingLeft=-3;spacingRight=-3;points=[];labelBackgroundColor=none;rounded=0;html=1;whiteSpace=wrap;" parent="IFgAx-EEVJAiXfjY6ULy-81" vertex="1">
          <mxGeometry width="34" height="55" as="geometry" />
        </mxCell>
        <mxCell id="IFgAx-EEVJAiXfjY6ULy-83" style="vsdxID=1999;fillColor=#ff9300;gradientColor=none;fillOpacity=75;strokeOpacity=75;shape=stencil(vVTbcoQgDP0aHs2wXASft9v/YLqoTK04yHbt3xeLMy101elDfQs5nOQkhCB6Hls1aETw6J191Xdz9S2iT4gQ07faGR8sRC+InmvrdOPsrb/G86Dmm7P1Zt/nCFPknThwMrMI/oieSgIXX57nSOhM/zeCci8BdQuBU2ARxm5hcGBLiOWOFFDRlaB4KtRkxsJZr7yxfcRxxDrlGl2EhEXdqSaBxrvWwy/3Y4kSBM0lVjyReMI4FciB8P8TmDU9S85AlNsd5zsdFxxkmcTEQMhR9Wxkf1gRk0CyGWIgq6SilQ4dUM3aYKw+TrnzOFt/7Ihp2//iwfjeKLXpuriQfuL5BgquuL3o5RM=);strokeColor=none;spacingTop=-3;spacingBottom=-3;spacingLeft=-3;spacingRight=-3;points=[];labelBackgroundColor=none;rounded=0;html=1;whiteSpace=wrap;" parent="IFgAx-EEVJAiXfjY6ULy-81" vertex="1">
          <mxGeometry x="14" y="34" width="1" height="15" as="geometry" />
        </mxCell>
        <mxCell id="IFgAx-EEVJAiXfjY6ULy-84" style="vsdxID=2000;fillColor=#ff9300;gradientColor=none;fillOpacity=75;strokeOpacity=75;shape=stencil(vVPLDoMgEPwajhoL2sfZ2v8gFZWUillotX9fLKQ+aNPEJt6W3VlmZ2EQSVVFG4ZwpDTIC2t5ritEjghjXlcMuDYRIhkiaSGBlSBvdW7PDe2RfXSV9/6GzvZFfQeOHvaUxGFMXpmTBVM4myo4cBKSvcWDa4iTMNnZlIdxkE3kOLqAdlwFIDXVXNYTfkGhZIFhCwpBy0lJtYw1XtrNJ3g9EnOIwy3+SL5Yznt6b0Mr6JmTD+Mt1uOvaLXX8X7Gn0/zbTcrSPnhGhMMfiu4ENau4/rcnyZlvU2yJw==);strokeColor=none;spacingTop=-3;spacingBottom=-3;spacingLeft=-3;spacingRight=-3;points=[];labelBackgroundColor=none;rounded=0;html=1;whiteSpace=wrap;" parent="IFgAx-EEVJAiXfjY6ULy-81" vertex="1">
          <mxGeometry x="8" y="16" width="17" height="2" as="geometry" />
        </mxCell>
        <mxCell id="IFgAx-EEVJAiXfjY6ULy-85" style="vsdxID=2001;fillColor=#ff9300;gradientColor=none;fillOpacity=75;strokeOpacity=75;shape=stencil(vVPLDoMgEPwajhoL2sfZ2v8gFZWUillotX9fLKQ+aNPEJt6W3VlmZ2EQSVVFG4ZwpDTIC2t5ritEjghjXlcMuDYRIhkiaSGBlSBvdW7PDe2RfXSV9/6GzvZFfQeOHvaUxGFMXpmTBVM4myo4cBKSvcWDa4iTMNnZlIdxkE3kOLqAdlwFIDXVXNYTfkGhZIFhCwpBy0lJtYw1XtrNJ3g9EnOIwy3+SL5Yznt6b0Mr6JmTD+Mt1uOvaLXX8X7Gn0/zbTcrSPnhGhMMfiu4ENau4/rcnyZlvU2yJw==);strokeColor=none;spacingTop=-3;spacingBottom=-3;spacingLeft=-3;spacingRight=-3;points=[];labelBackgroundColor=none;rounded=0;html=1;whiteSpace=wrap;" parent="IFgAx-EEVJAiXfjY6ULy-81" vertex="1">
          <mxGeometry x="8" y="19" width="17" height="2" as="geometry" />
        </mxCell>
        <UserObject label="&lt;div style=&quot;font-size: 1px&quot;&gt;&lt;p style=&quot;text-align:left;margin-left:0;margin-right:0;margin-top:0px;margin-bottom:0px;text-indent:0;vertical-align:middle;direction:ltr;&quot;&gt;&lt;font style=&quot;font-size:25.4px;font-family:Segoe UI Semibold;color:#000000;direction:ltr;letter-spacing:0px;line-height:120%;opacity:1&quot;&gt;Azure&lt;br/&gt;&lt;/font&gt;&lt;font style=&quot;font-size:25.4px;font-family:Segoe UI Semibold;color:#000000;direction:ltr;letter-spacing:0px;line-height:120%;opacity:1&quot;&gt;Key Vault&lt;br/&gt;&lt;/font&gt;&lt;/p&gt;&lt;/div&gt;" tags="Background" id="IFgAx-EEVJAiXfjY6ULy-86">
          <mxCell style="verticalAlign=middle;align=left;overflow=width;vsdxID=2002;fillColor=none;gradientColor=none;shape=stencil(nZBLDoAgDERP0z3SIyjew0SURgSD+Lu9kMZoXLhwN9O+tukAlrNpJg1SzDH4QW/URgNYgZTkjA4UkwJUgGXng+6DX1zLfmoymdXo17xh5zmRJ6Q42BWCfc2oJfdAr+Yv+AP9Cb7OJ3H/2JG1HNGz/84klThPVCc=);strokeColor=none;points=[];labelBackgroundColor=none;rounded=0;html=1;whiteSpace=wrap;" parent="1" vertex="1">
            <mxGeometry x="537" y="251" width="188" height="68" as="geometry" />
          </mxCell>
        </UserObject>
        <UserObject label="" tags="Background" id="IFgAx-EEVJAiXfjY6ULy-87">
          <mxCell style="vsdxID=2439;fillColor=none;gradientColor=none;points=[];labelBackgroundColor=none;rounded=0;strokeColor=none;html=1;whiteSpace=wrap;" parent="1" vertex="1">
            <mxGeometry x="166" y="342" width="136" height="93" as="geometry" />
          </mxCell>
        </UserObject>
        <mxCell id="IFgAx-EEVJAiXfjY6ULy-88" value="&lt;div style=&quot;font-size: 1px&quot;&gt;&lt;font style=&quot;font-size:16.93px;font-family:Segoe UI Semibold;color:#000000;direction:ltr;letter-spacing:0px;line-height:120%;opacity:1&quot;&gt;DC1&lt;br/&gt;&lt;/font&gt;&lt;/div&gt;" style="verticalAlign=middle;align=center;overflow=width;vsdxID=2434;fillColor=none;gradientColor=none;shape=stencil(nZBLDoAgDERP0z3SIyjew0SURgSD+Lu9kMZoXLhwN9O+tukAlrNpJg1SzDH4QW/URgNYgZTkjA4UkwJUgGXng+6DX1zLfmoymdXo17xh5zmRJ6Q42BWCfc2oJfdAr+Yv+AP9Cb7OJ3H/2JG1HNGz/84klThPVCc=);strokeColor=none;points=[];labelBackgroundColor=none;rounded=0;html=1;whiteSpace=wrap;" parent="IFgAx-EEVJAiXfjY6ULy-87" vertex="1">
          <mxGeometry y="39" width="64" height="53" as="geometry" />
        </mxCell>
        <mxCell id="IFgAx-EEVJAiXfjY6ULy-89" value="&lt;div style=&quot;font-size: 1px&quot;&gt;&lt;font style=&quot;font-size:16.93px;font-family:Segoe UI Semibold;color:#000000;direction:ltr;letter-spacing:0px;line-height:120%;opacity:1&quot;&gt;DC2&lt;br/&gt;&lt;/font&gt;&lt;/div&gt;" style="verticalAlign=middle;align=center;overflow=width;vsdxID=2435;fillColor=none;gradientColor=none;shape=stencil(nZBLDoAgDERP0z3SIyjew0SURgSD+Lu9kMZoXLhwN9O+tukAlrNpJg1SzDH4QW/URgNYgZTkjA4UkwJUgGXng+6DX1zLfmoymdXo17xh5zmRJ6Q42BWCfc2oJfdAr+Yv+AP9Cb7OJ3H/2JG1HNGz/84klThPVCc=);strokeColor=none;points=[];labelBackgroundColor=none;rounded=0;html=1;whiteSpace=wrap;" parent="IFgAx-EEVJAiXfjY6ULy-87" vertex="1">
          <mxGeometry x="71" y="39" width="64" height="53" as="geometry" />
        </mxCell>
        <mxCell id="IFgAx-EEVJAiXfjY6ULy-90" style="vsdxID=2438;fillColor=none;gradientColor=none;points=[];labelBackgroundColor=none;rounded=0;strokeColor=none;html=1;whiteSpace=wrap;" parent="IFgAx-EEVJAiXfjY6ULy-87" vertex="1">
          <mxGeometry x="15" width="103" height="50" as="geometry" />
        </mxCell>
        <mxCell id="IFgAx-EEVJAiXfjY6ULy-91" style="vsdxID=2426;fillColor=#b3b2b3;gradientColor=none;shape=stencil(vVPLjoMwDPyaHIkgbiic+/iPqA0QbUqQSVv69xvWqOWx3R5W4uZ4xnHG8TDYtZVqNBNx69F96bs5+4rBnglh6kqj8SFicGCwKxzqEt21PtO5UT2zjy7u1t/QUV0Sx32NiB90zlOeip/MkegKTwHFgS75JiU+DgXApaTMQMk3XOSTO589ukh1po3QeeWNqwkdMKuw1FHoFhVWlROovWvdjNLJ+H3W1CM5km+zX3u/USOzuZoUJmreTWcFLdPWwCH7l5LFaFb7lOVG/PknHzdsvrPP0ayg5aNfQvDyWmGsJauO8bk3Q4p8DYdv);strokeColor=none;spacingTop=-3;spacingBottom=-3;spacingLeft=-3;spacingRight=-3;points=[];labelBackgroundColor=none;rounded=0;html=1;whiteSpace=wrap;" parent="IFgAx-EEVJAiXfjY6ULy-90" vertex="1">
          <mxGeometry width="32" height="50" as="geometry" />
        </mxCell>
        <mxCell id="IFgAx-EEVJAiXfjY6ULy-92" style="vsdxID=2427;fillColor=#003067;gradientColor=none;shape=stencil(vVPBboMwDP2aHLFCDBTOXfcf0RogWkaQyVr69wtL2xFWVKkHbraf7ZcX6zHcD63sFRN8cGQ/1VkfXcvwjQmhu1aRdj5ieGC4ry2phux3dwx5L6fOKfqyp2nDGOb4NCH4JWRZBSL9rbyHZkkfHqVrc1pAGmBOt4kCyiKUbk0ZVFm09coxJnLUQ0LWSadtF2FGUqMSz5bURjYRNJyV6mfl6H1GdzMxpafePaBeEyOqhZgdYBmL4WsftIGcdfLXr1PmUERL7yQb6Mnvn7cgf6wnhwr/6cEs0sNBxBfPU8DNLvTkPj74812tjQm2neNLn/pS8DgefgA=);strokeColor=none;spacingTop=-3;spacingBottom=-3;spacingLeft=-3;spacingRight=-3;points=[];labelBackgroundColor=none;rounded=0;html=1;whiteSpace=wrap;" parent="IFgAx-EEVJAiXfjY6ULy-90" vertex="1">
          <mxGeometry x="4" y="17" width="23" height="8" as="geometry" />
        </mxCell>
        <mxCell id="IFgAx-EEVJAiXfjY6ULy-93" style="vsdxID=2428;fillColor=#003067;gradientColor=none;shape=stencil(vZPdjoMgEIWfhksJAhW97rbvQVpUsqyYkW7dty8uuita06QX3g3zw+EbchA7drVsFaKkc2A/1V1fXY3YB6JUN7UC7XyE2AmxY2lBVWBvzTWcWzl0DtGX/R5u6MMcGSYo+QknXmAufjPn0Czh4qswNqcHXLAwANOEwGxMTU0cFzy6ddToE9nrLgHrpNO2iWpGQqUSr5aURlZRqbsr1c7S6fx9RjczmNxLiyfSz2EynKYrmDyLYchqQYLthbMtvgVEiwVQjnnEs97Qn8gOPAc8lpfi738QwVRsLGkHohfu8cG/70ptTLDtvL70qU8Fj7PTAw==);strokeColor=none;spacingTop=-3;spacingBottom=-3;spacingLeft=-3;spacingRight=-3;points=[];labelBackgroundColor=none;rounded=0;html=1;whiteSpace=wrap;" parent="IFgAx-EEVJAiXfjY6ULy-90" vertex="1">
          <mxGeometry x="4" y="5" width="23" height="7" as="geometry" />
        </mxCell>
        <mxCell id="IFgAx-EEVJAiXfjY6ULy-94" style="vsdxID=2429;fillColor=#50e6ff;gradientColor=none;shape=stencil(vVHLDsIgEPwajiQI6RfU+h8bu22JCGRB2/69kG1iazx58DazM/vIjjBtmiCi0CplCjecbZ8nYc5Ca+snJJsLEqYTph0C4Ujh4XvmEaqzont41gkL96naodXKrGF6YSfQtUi0OXXDVlqPfJNP6usotUhYbJIUMmQb/GGrAxpRljVycDBuc1hKM2LclX8/7H9nFfB+82Cd45T2+mcspcSRmu4F);strokeColor=none;spacingTop=-3;spacingBottom=-3;spacingLeft=-3;spacingRight=-3;points=[];labelBackgroundColor=none;rounded=0;html=1;whiteSpace=wrap;" parent="IFgAx-EEVJAiXfjY6ULy-90" vertex="1">
          <mxGeometry x="6" y="7" width="5" height="5" as="geometry" />
        </mxCell>
        <mxCell id="IFgAx-EEVJAiXfjY6ULy-95" style="vsdxID=2430;fillColor=#50e6ff;gradientColor=none;shape=stencil(vVHLDsIgEPwajiQI6RfU+h8bu22JCGRB2/69kG1iazx58DazM/vIjjBtmiCi0CplCjecbZ8nYc5Ca+snJJsLEqYTph0C4Ujh4XvmEaqzont41gkL96naodXKrGF6YSfQtUi0OXXDVlqPfJNP6usotUhYbJIUMmQb/GGrAxpRljVycDBuc1hKM2LclX8/7H9nFfB+82Cd45T2+mcspcSRmu4F);strokeColor=none;spacingTop=-3;spacingBottom=-3;spacingLeft=-3;spacingRight=-3;points=[];labelBackgroundColor=none;rounded=0;html=1;whiteSpace=wrap;" parent="IFgAx-EEVJAiXfjY6ULy-90" vertex="1">
          <mxGeometry x="6" y="18" width="5" height="5" as="geometry" />
        </mxCell>
        <mxCell id="IFgAx-EEVJAiXfjY6ULy-96" style="vsdxID=2431;fillColor=#b3b2b3;gradientColor=none;shape=stencil(vVPLEoIwDPyaHulAY1HPPv6jowU6VsqEqvj3FsMo4OvgDLc0u2m6aZbBqi5UpZmIa4/uoC9m7wsGayaEKQuNxoeIwYbBKnOoc3Snck/nSrXMNjq6c3tDQ3VJHLc1Ir7SeZnyVNwzW6Ir3AUUO7rkckF87AqAp0CZjrKccQGDOx89mkg1po7QeeWNKwntMKsw11HoFmVW5QOovmhd9dJJ/33WlD05ks+Tt70/qJnJsRopB2o+TWcCLcPWwGHxl5KX0Uz2Ka8b8fVPfm7YeGcfo5lAy0+/hODptcxYS1bt42NvhhT5GjY3);strokeColor=none;spacingTop=-3;spacingBottom=-3;spacingLeft=-3;spacingRight=-3;points=[];labelBackgroundColor=none;rounded=0;html=1;whiteSpace=wrap;" parent="IFgAx-EEVJAiXfjY6ULy-90" vertex="1">
          <mxGeometry x="71" width="32" height="50" as="geometry" />
        </mxCell>
        <mxCell id="IFgAx-EEVJAiXfjY6ULy-97" style="vsdxID=2432;fillColor=#003067;gradientColor=none;shape=stencil(xZPbbsMgDIafhstYHHK87tr3QCtJ0FiIHNpmbz8y0ja0iXYxqbsz/m1+PiwTsRta2SvC6eDQfqiLPrqWiDfCue5ahdr5iIg9EbvaomrQnrpjOPdyqpyiT3uebhhDH506OP0Kp7SCQvxkDqFY4rtXcS5mGVRBpnjtKEDMqWtRClUa3Tp7jIkc9ZCgddJp20WakdioxLsltZFNJA0XpfpFmi3fZ3S3gCkzoPmK9R9g6NYHvQBn23wdKAfGnoDKPAJ6/qKbywuAMhCr3ls8/AGnBBbPhwIv/m9Av4zHB/e1q7UxYWuX+uOa+lRYcbH/Bg==);strokeColor=none;spacingTop=-3;spacingBottom=-3;spacingLeft=-3;spacingRight=-3;points=[];labelBackgroundColor=none;rounded=0;html=1;whiteSpace=wrap;" parent="IFgAx-EEVJAiXfjY6ULy-90" vertex="1">
          <mxGeometry x="75" y="5" width="23" height="7" as="geometry" />
        </mxCell>
        <mxCell id="IFgAx-EEVJAiXfjY6ULy-98" style="vsdxID=2433;fillColor=#50e6ff;gradientColor=none;shape=stencil(vVHLDsIgEPwajiQI6RfU+h8bu22JCGRB2/69kG1iazx58DazM/vIjjBtmiCi0CplCjecbZ8nYc5Ca+snJJsLEqYTph0C4Ujh4XvmEaqzont41gkL96naodXKrGF6YSfQtUi0OXXDVlqPfJNP6usotUhYbJIUMmQb/GGrAxpRljVycDBuc1hKM2LclX8/7H9nFfB+82Cd45T2+mcspcSRmu4F);strokeColor=none;spacingTop=-3;spacingBottom=-3;spacingLeft=-3;spacingRight=-3;points=[];labelBackgroundColor=none;rounded=0;html=1;whiteSpace=wrap;" parent="IFgAx-EEVJAiXfjY6ULy-90" vertex="1">
          <mxGeometry x="77" y="7" width="5" height="5" as="geometry" />
        </mxCell>
        <mxCell id="IFgAx-EEVJAiXfjY6ULy-99" style="vsdxID=2436;fillColor=#003067;gradientColor=none;shape=stencil(vVPbDoIwDP2aPbKMDVCeEf9jkQGLk5EyBf/e4bwwlZhowlvXc9qz06aIZV3NW4Eo6QzovehlYWrENohS2dQCpLERYjliWalBVKCPTeHeLR+ZY3TQp7HD4OrIWEHJ2b2iFNPwmtk6MoedReFGDhMcOpjAvSLB68Sl7qQIp5HX9aYxBHyQXQDacCN142GKQyUCqxaUilce1PVCtJO09z8lm4mZdYxJ8kH6DzNkbkAL2JkXnzNE6Jsh34+dkD+gh8YCdmLMPmr/vh6C6cprGYeYLbafL9uxwfPqSqmUO9op/nqlNuUunOUX);strokeColor=none;spacingTop=-3;spacingBottom=-3;spacingLeft=-3;spacingRight=-3;points=[];labelBackgroundColor=none;rounded=0;html=1;whiteSpace=wrap;" parent="IFgAx-EEVJAiXfjY6ULy-90" vertex="1">
          <mxGeometry x="77" y="20" width="23" height="8" as="geometry" />
        </mxCell>
        <mxCell id="IFgAx-EEVJAiXfjY6ULy-100" style="vsdxID=2437;fillColor=#50e6ff;gradientColor=none;shape=stencil(vVHLDsIgEPwajiQI6RfU+h8bu22JCGRB2/69kG1iazx58DazM/vIjjBtmiCi0CplCjecbZ8nYc5Ca+snJJsLEqYTph0C4Ujh4XvmEaqzont41gkL96naodXKrGF6YSfQtUi0OXXDVlqPfJNP6usotUhYbJIUMmQb/GGrAxpRljVycDBuc1hKM2LclX8/7H9nFfB+82Cd45T2+mcspcSRmu4F);strokeColor=none;spacingTop=-3;spacingBottom=-3;spacingLeft=-3;spacingRight=-3;points=[];labelBackgroundColor=none;rounded=0;html=1;whiteSpace=wrap;" parent="IFgAx-EEVJAiXfjY6ULy-90" vertex="1">
          <mxGeometry x="78" y="20" width="5" height="5" as="geometry" />
        </mxCell>
        <mxCell id="U4OLDzbhOeqwr8gAxo-m-1" value="" style="image;aspect=fixed;html=1;points=[];align=center;fontSize=12;image=img/lib/azure2/management_governance/Recovery_Services_Vaults.svg;" vertex="1" parent="1">
          <mxGeometry x="444.5" y="426" width="69" height="60" as="geometry" />
        </mxCell>
        <UserObject label="&lt;div style=&quot;font-size: 1px&quot;&gt;&lt;p style=&quot;text-align:left;margin-left:0;margin-right:0;margin-top:0px;margin-bottom:0px;text-indent:0;vertical-align:middle;direction:ltr;&quot;&gt;&lt;font style=&quot;font-size:25.4px;font-family:Segoe UI Semibold;color:#000000;direction:ltr;letter-spacing:0px;line-height:120%;opacity:1&quot;&gt;Azure&lt;br&gt;Backup&lt;/font&gt;&lt;/p&gt;&lt;/div&gt;" tags="Background" id="U4OLDzbhOeqwr8gAxo-m-2">
          <mxCell style="verticalAlign=middle;align=left;overflow=width;vsdxID=10089;fillColor=none;gradientColor=none;shape=stencil(nZBLDoAgDERP0z3SIyjew0SURgSD+Lu9kMZoXLhwN9O+tukAlrNpJg1SzDH4QW/URgNYgZTkjA4UkwJUgGXng+6DX1zLfmoymdXo17xh5zmRJ6Q42BWCfc2oJfdAr+Yv+AP9Cb7OJ3H/2JG1HNGz/84klThPVCc=);strokeColor=none;points=[];labelBackgroundColor=none;rounded=0;html=1;whiteSpace=wrap;" vertex="1" parent="1">
            <mxGeometry x="537" y="422" width="188" height="68" as="geometry" />
          </mxCell>
        </UserObject>
      </root>
    </mxGraphModel>
  </diagram>
</mxfile>
